<svg version="1.1" id="Layer_1" xmlns="http://www.w3.org/2000/svg" xmlns:xlink="http://www.w3.org/1999/xlink" x="0px" y="0px"
	 width="100%" viewBox="0 0 874 209" enable-background="new 0 0 874 209" xml:space="preserve">
<path fill="#000000" opacity="1.000000" stroke="none" 
	d="
M576.000000,210.000000 
	C384.044189,210.000000 192.588394,210.000000 1.066294,210.000000 
	C1.066294,140.393661 1.066294,70.787247 1.066294,1.090412 
	C292.333313,1.090412 583.666687,1.090412 874.965454,1.090412 
	C874.965454,70.744911 874.965454,140.372467 874.965454,210.000000 
	C775.453918,210.000000 675.976990,210.000000 576.000000,210.000000 
M383.386749,54.739841 
	C377.425690,49.560993 372.355530,49.589695 364.021057,54.849472 
	C361.570465,51.470200 342.879822,50.541897 337.850372,53.980927 
	C344.094299,54.563065 342.990448,58.938763 342.998474,62.723934 
	C343.018280,72.054642 342.826447,81.390434 343.087128,90.713905 
	C343.204132,94.899345 341.752075,96.096664 337.657715,96.124069 
	C333.401428,96.152542 331.783020,95.056931 331.904633,90.522659 
	C332.203857,79.367210 331.850342,68.195297 332.069946,57.036114 
	C332.148376,53.051193 330.754089,51.737469 326.885223,51.945400 
	C322.066864,52.204357 317.223358,51.961826 312.393707,52.070057 
	C311.325653,52.093994 310.270172,52.680035 309.559265,52.899231 
	C310.944183,55.096210 312.783813,56.678387 312.833710,58.315170 
	C313.113037,67.470367 313.148102,76.644714 312.858276,85.799599 
	C312.748260,89.274048 311.557617,93.308556 307.419220,93.403076 
	C306.339569,93.427734 305.057983,88.487526 304.054840,85.759315 
	C303.730804,84.878044 303.999268,83.778450 303.998932,82.778732 
	C303.995941,74.114464 303.846283,65.446579 304.059296,56.787609 
	C304.151581,53.035160 302.808289,51.766510 299.136780,51.948605 
	C294.316650,52.187672 289.474915,51.957809 284.644196,52.036247 
	C283.187134,52.059906 281.735779,52.438084 280.281830,52.653866 
	C280.058044,53.072887 279.834259,53.491909 279.610474,53.910927 
	C286.135437,54.757027 285.008728,59.219456 285.003052,63.169712 
	C284.992523,70.500999 284.912720,77.833817 285.032104,85.163231 
	C285.176147,94.010361 290.242462,98.910736 299.040771,99.003983 
	C304.171875,99.058350 309.463593,99.780739 312.258423,95.613556 
	C314.646515,96.640930 316.205688,97.884476 317.775940,97.898666 
	C333.603546,98.041824 349.432983,97.996307 365.261780,97.949341 
	C366.182526,97.946602 367.101929,97.473480 369.266663,96.875328 
	C366.373260,96.103371 364.848480,95.696564 363.055603,95.218216 
	C363.055603,85.301369 362.527344,75.608994 363.341736,66.030785 
	C363.627350,62.671627 367.152893,59.550674 369.380096,56.451073 
	C369.604828,56.138283 371.086121,56.728374 371.984283,56.899456 
	C371.639099,57.866470 371.500916,58.998684 370.895111,59.757721 
	C370.175415,60.659447 368.511108,61.058971 368.199524,61.991375 
	C366.807404,66.157204 368.943115,69.815765 373.044861,70.830994 
	C378.728882,72.237839 384.115631,70.365440 384.612488,66.186104 
	C385.048248,62.520935 384.203400,58.703518 384.782471,54.992119 
	C388.136383,54.568546 389.064026,56.242340 389.009399,59.356625 
	C388.875183,67.007141 388.486115,74.701256 389.098022,82.305550 
	C390.019958,93.762871 392.119995,97.691116 399.959198,98.685036 
	C404.955566,99.318512 410.257416,97.502335 415.428619,96.833549 
	C416.399078,96.708046 417.403473,96.756439 418.385529,96.822983 
	C425.893738,97.331718 433.400299,97.864822 440.907379,98.390350 
	C441.136566,97.767700 441.365784,97.145050 441.594971,96.522400 
	C436.613434,96.579987 436.969238,93.452118 436.979614,90.399132 
	C437.018005,79.086159 436.984222,67.772949 436.975647,56.459824 
	C436.973969,54.236103 437.093750,51.996014 433.809235,52.032764 
	C427.655060,52.101627 421.498993,52.028896 415.346100,52.143276 
	C414.627502,52.156639 413.923920,52.978573 411.428925,54.548428 
	C417.783020,54.304165 416.919952,57.601746 416.958191,60.357548 
	C417.008942,64.016991 416.975586,67.677643 416.972382,71.337776 
	C416.967834,76.495117 417.522858,81.743454 416.713196,86.771660 
	C416.304565,89.309273 413.419708,91.448151 411.654480,93.767296 
	C410.768494,91.520561 409.180786,89.293472 409.117249,87.023712 
	C408.833313,76.882950 408.880859,66.728447 409.035492,56.582352 
	C409.088013,53.135769 407.915100,51.825970 404.432343,51.956879 
	C398.949890,52.162949 393.453979,52.026455 387.963898,52.007381 
	C385.831909,51.999977 383.829346,52.085224 383.386749,54.739841 
M68.008392,88.921204 
	C68.343590,101.378853 68.584496,113.840691 69.137589,126.288658 
	C69.204033,127.784142 70.963539,129.204407 71.938332,130.659531 
	C73.285133,129.096924 75.603447,127.643509 75.793671,125.950912 
	C76.330070,121.177940 75.995667,116.306725 75.998383,111.474236 
	C76.001808,105.379395 75.999207,99.284561 75.999207,92.112267 
	C83.598343,95.497765 90.290886,98.272903 96.784782,101.453590 
	C100.405426,103.226959 103.592651,103.328789 107.177620,101.464508 
	C111.731888,99.096169 116.457207,97.047256 121.162865,94.983971 
	C123.170731,94.103584 125.315399,93.535187 128.000610,92.619476 
	C128.000610,95.133392 127.797958,96.811722 128.038925,98.423737 
	C128.738190,103.101692 126.875198,105.770744 122.390724,107.357895 
	C118.033699,108.899940 113.889404,111.072968 109.721710,113.112022 
	C105.115120,115.365814 100.729347,116.880173 95.791664,113.541809 
	C92.952950,111.622559 89.606567,110.186234 86.283005,109.360222 
	C84.505020,108.918343 82.290825,110.231621 80.273483,110.752800 
	C81.188423,112.493423 81.664780,114.948059 83.105370,115.832947 
	C86.608330,117.984695 90.731064,119.122459 94.254105,121.248672 
	C95.920395,122.254295 97.697266,124.511475 97.853935,126.336388 
	C98.548409,134.426071 98.864410,142.563049 98.932014,150.686127 
	C98.971771,155.462173 100.966400,158.707809 105.155464,160.498077 
	C107.218964,161.379929 109.594765,161.906952 111.836815,161.932617 
	C124.166527,162.073730 136.498947,161.959381 148.829559,162.052063 
	C151.965912,162.075623 154.899170,162.723495 154.970947,166.901733 
	C155.042435,171.062592 152.204788,171.695801 149.025131,171.974136 
	C148.528595,172.017624 148.025833,171.994461 147.525940,171.994492 
	C130.362137,171.995682 113.197769,171.923935 96.035057,172.060455 
	C92.819824,172.086029 90.977448,171.197906 89.477684,168.170715 
	C86.427628,162.014297 81.236427,158.875366 74.200554,158.986023 
	C68.702812,159.072495 63.200436,159.107941 57.704132,158.985672 
	C49.691605,158.807419 41.055470,166.842834 41.868416,176.442596 
	C42.609924,185.198730 48.924740,191.935211 57.909828,191.989761 
	C63.908592,192.026184 69.911690,192.129608 75.905693,191.956116 
	C82.202698,191.773834 87.386513,188.995270 89.656006,183.083145 
	C91.077705,179.379578 93.159111,178.952591 96.388901,178.965927 
	C114.218948,179.039520 132.049484,179.012817 149.879807,178.990387 
	C157.028351,178.981400 163.030090,173.392273 162.967453,166.885712 
	C162.897278,159.595917 157.933823,155.033096 149.944427,155.010025 
	C138.613083,154.977325 127.281563,155.009888 115.950142,154.995575 
	C107.328346,154.984695 106.009895,153.695740 106.000870,145.343658 
	C105.994751,139.677933 106.332397,133.986557 105.896736,128.354568 
	C105.544823,123.805252 107.668068,121.826050 111.444382,120.243187 
	C118.316971,117.362488 125.200066,114.423096 131.739395,110.881523 
	C133.728119,109.804482 135.532883,106.775383 135.797974,104.454811 
	C136.399307,99.190804 136.033005,93.811111 135.982819,88.479172 
	C135.924866,82.324234 133.961121,80.937828 128.313187,83.423897 
	C121.788315,86.295959 115.439430,89.566254 108.932823,92.482178 
	C106.553307,93.548569 103.537895,95.320175 101.508408,94.653099 
	C94.894936,92.479301 88.602699,89.328239 81.137489,86.099327 
	C84.724548,84.262894 87.038467,83.015228 89.406143,81.879654 
	C93.889153,79.729500 98.551147,77.895813 102.819878,75.387848 
	C104.223366,74.563255 104.641594,72.061684 105.510368,70.326965 
	C103.517548,69.822365 101.090469,68.324463 99.602608,68.974915 
	C90.182777,73.093002 80.880089,77.512947 71.768791,82.273582 
	C69.999313,83.198128 69.242973,86.061707 68.008392,88.921204 
M70.500000,19.999655 
	C56.337742,20.001883 42.175117,19.943928 28.013380,20.030602 
	C20.427744,20.077026 16.012909,24.605883 16.009012,32.137981 
	C15.991860,65.294632 16.252562,98.454750 15.797836,131.605179 
	C15.702414,138.561737 22.522930,145.232498 29.246166,145.113159 
	C48.401016,144.773148 67.565819,144.986023 86.726685,145.001495 
	C89.507011,145.003754 92.674835,144.933487 92.662468,141.375824 
	C92.650398,137.899750 89.718086,136.999329 86.577354,137.004074 
	C68.416298,137.031540 50.254311,136.930237 32.094501,137.087585 
	C23.841440,137.159103 23.010069,136.588074 23.004822,128.152039 
	C22.992279,107.991463 23.000315,87.830864 23.000265,67.670280 
	C23.000235,55.000065 23.000460,55.020351 35.469299,54.993347 
	C44.297504,54.974224 53.134773,55.093765 61.947250,54.694035 
	C64.157669,54.593769 68.013412,54.821457 67.786247,50.826057 
	C67.565331,46.940701 64.360741,46.993435 61.431030,46.998665 
	C51.933929,47.015621 42.436069,47.075035 32.939827,46.982376 
	C21.567839,46.871410 23.121353,48.494919 23.017979,37.299915 
	C22.932487,28.041691 24.025465,27.004925 33.304626,27.003706 
	C82.123238,26.997299 130.941849,27.001446 179.760452,26.994963 
	C181.591812,26.994719 183.493713,27.206676 185.227722,26.776054 
	C186.247589,26.522787 187.625229,25.260225 187.721008,24.335529 
	C187.850342,23.086409 187.260818,21.091927 186.330170,20.565407 
	C185.021591,19.825073 183.116776,20.020145 181.466812,20.019091 
	C144.811218,19.995674 108.155609,20.000360 70.500000,19.999655 
M503.999786,65.548187 
	C503.999146,73.710968 504.190033,81.880981 503.882538,90.032196 
	C503.788971,92.512108 502.321228,94.940193 501.459808,97.459518 
	C529.033020,97.459518 557.995972,97.459518 586.958923,97.459518 
	C582.626404,96.575089 582.948853,93.458244 582.972961,90.398445 
	C583.029480,83.235634 583.001160,76.072021 582.985413,68.908783 
	C582.955811,55.429920 577.330444,49.983318 564.009521,51.144711 
	C560.882202,51.417370 557.889954,53.239056 554.679138,54.404884 
	C552.268799,51.141689 532.350586,50.532673 529.225586,54.400455 
	C533.545776,54.544205 534.137146,57.067051 534.051880,60.698143 
	C533.817261,70.687920 533.801636,80.690956 534.049805,90.680031 
	C534.152405,94.808807 532.838684,96.121750 528.677185,96.122635 
	C524.455933,96.123528 522.781250,95.109642 522.902161,90.546280 
	C523.202148,79.226402 523.068176,67.891876 522.895996,56.566471 
	C522.873474,55.083736 521.639282,52.362190 520.907593,52.342010 
	C513.616577,52.140862 506.313019,52.376812 499.014618,52.556988 
	C498.806610,52.562126 498.617126,53.316669 498.223785,54.120937 
	C500.076324,54.658943 501.724609,55.137630 504.000000,55.798443 
	C504.000000,58.652889 504.000000,61.611710 503.999786,65.548187 
M624.003174,97.990189 
	C629.995300,97.990189 635.987427,97.990189 641.979553,97.990189 
	C642.178711,97.512070 642.377869,97.033943 642.577087,96.555824 
	C637.655518,96.557724 637.976074,93.468750 637.981689,90.415062 
	C638.017944,70.781013 638.039673,51.146622 637.925354,31.513161 
	C637.915161,29.758455 636.973999,26.515747 636.345154,26.485825 
	C628.905090,26.131744 621.442261,26.257996 613.496521,26.257996 
	C615.454102,28.008017 617.675049,29.051727 617.726013,30.192392 
	C618.048157,37.402084 617.889465,44.633263 617.889465,52.271736 
	C615.930969,51.842293 614.823608,51.603138 613.717896,51.356464 
	C601.050110,48.530491 591.548401,54.204304 589.422546,66.713608 
	C588.462158,72.365265 588.481750,78.434311 589.420776,84.087448 
	C590.361145,89.748787 592.765442,95.500839 598.929138,97.716705 
	C605.788391,100.182663 612.605896,99.976875 618.352417,95.581009 
	C620.159607,96.485641 621.647705,97.230568 624.003174,97.990189 
M254.111740,98.978424 
	C260.795044,98.354858 267.175201,93.744110 274.998077,98.856377 
	C274.998077,90.537788 274.797638,83.591110 275.105408,76.667030 
	C275.215027,74.200714 276.557434,71.789200 277.465271,68.952202 
	C274.157257,66.829536 251.801270,67.372757 249.552551,70.489487 
	C251.560791,70.837288 253.469482,71.167854 255.793381,71.570320 
	C255.793381,78.174431 256.023468,84.639198 255.697418,91.075783 
	C255.531555,94.349823 253.591110,95.884186 249.752991,96.196312 
	C244.764145,96.602013 239.132172,91.526276 238.300476,85.072548 
	C237.034012,75.245285 236.282135,65.293884 236.238693,55.391140 
	C236.216827,50.407261 237.738358,45.236568 239.443115,40.465191 
	C242.381088,32.242279 251.979187,30.244627 257.889526,36.565483 
	C261.477448,40.402657 264.329193,44.922974 267.589233,49.075500 
	C268.456665,50.180393 269.610107,51.060741 271.503143,52.882145 
	C271.503143,44.768974 271.503143,38.122662 271.503143,31.958267 
	C267.393921,31.602278 263.836212,31.230322 260.269379,30.999559 
	C254.484528,30.625298 248.654510,29.771355 242.915024,30.164223 
	C235.330826,30.683361 228.606247,33.561512 223.516098,39.770695 
	C215.045471,50.103497 213.818329,61.827530 215.877579,74.456451 
	C217.860626,86.618095 224.294769,94.964554 236.398239,97.807854 
	C241.789459,99.074318 247.578110,98.649002 254.111740,98.978424 
M447.136322,97.968559 
	C458.257599,97.680840 469.449921,98.716949 480.525330,96.378159 
	C477.839630,95.224976 475.097015,95.350212 472.471680,94.854370 
	C471.225769,94.619041 469.256409,93.227348 469.228302,92.310066 
	C468.975128,84.049080 469.080322,75.777100 469.080322,67.636810 
	C476.447083,66.550896 479.714508,68.533386 482.092926,74.659111 
	C482.837006,76.575508 484.095398,78.292206 485.118408,80.100319 
	C485.484436,79.847412 485.850464,79.594513 486.216492,79.341614 
	C486.216492,70.009026 486.216492,60.676437 486.216492,51.343849 
	C483.267303,54.191952 481.914459,57.624859 479.597931,60.186268 
	C477.087952,62.961582 473.644073,64.794235 469.045776,63.265953 
	C469.045776,54.462601 468.945679,45.828415 469.172943,37.202847 
	C469.201233,36.128853 470.878113,34.296749 471.938354,34.182533 
	C478.457581,33.480206 484.130585,35.252979 487.710999,41.214924 
	C489.235077,43.752739 490.277008,46.579002 491.783844,49.128922 
	C492.256744,49.929199 493.531464,50.255634 494.439209,50.798954 
	C494.910492,49.887539 495.807434,48.963680 495.781189,48.066818 
	C495.650909,43.611729 495.065247,39.164028 495.059448,34.713181 
	C495.055145,31.406258 494.144165,29.860617 490.532959,29.972256 
	C475.590485,30.434187 460.641998,30.701464 445.696625,31.075844 
	C444.965240,31.094166 444.242279,31.448719 443.515411,31.646704 
	C443.453064,32.011017 443.390686,32.375328 443.328339,32.739639 
	C445.107941,33.462994 446.887543,34.186348 448.963135,35.030010 
	C448.963135,54.030800 449.009674,72.996559 448.838013,91.960350 
	C448.828552,93.007080 447.174561,94.322342 445.994110,95.015251 
	C443.636597,96.399078 443.812347,97.186935 447.136322,97.968559 
M180.562683,55.065907 
	C180.708694,57.216404 180.978607,59.366722 180.981628,61.517418 
	C181.012772,83.682816 181.003952,105.848267 180.999161,128.013702 
	C180.997314,136.555283 180.564117,136.990662 171.913406,136.997009 
	C155.914291,137.008759 139.915192,137.000824 123.916077,137.001205 
	C122.416161,137.001236 120.916084,136.988892 119.416351,137.005661 
	C116.091118,137.042831 111.998505,136.507080 112.202553,141.469208 
	C112.383034,145.858124 116.318436,144.951736 119.125694,144.962158 
	C137.291107,145.029633 155.468979,144.608139 173.617096,145.172714 
	C181.853806,145.428940 189.348877,137.873459 189.177917,129.576523 
	C188.683655,105.588562 189.043793,81.583405 188.995560,57.585152 
	C188.991287,55.458355 188.302048,53.339882 188.201126,51.204773 
	C188.031647,47.619690 185.950989,46.937283 182.846710,46.969173 
	C172.848358,47.071877 162.848221,47.000278 152.848785,47.001785 
	C148.849091,47.002388 144.805527,46.678940 140.870361,47.187412 
	C139.198013,47.403500 137.752747,49.377060 136.204285,50.551910 
	C137.786743,51.693958 139.280136,53.632996 140.969131,53.821758 
	C145.249557,54.300129 149.618271,53.952980 153.950684,54.009312 
	C162.602249,54.121803 171.253189,54.283108 180.562683,55.065907 
M670.706299,73.990326 
	C676.202209,73.982903 681.704590,74.114952 687.189270,73.863281 
	C688.452148,73.805336 690.433350,72.670319 690.754883,71.622925 
	C692.464478,66.053970 689.112732,57.796921 684.243652,54.573914 
	C676.672119,49.562096 668.383179,50.102539 660.279053,52.214123 
	C649.480652,55.027725 645.356506,63.487999 644.057007,73.723953 
	C642.984131,82.174004 647.735413,92.281487 655.146606,95.923172 
	C664.376892,100.458710 674.175354,101.068062 683.281677,95.982780 
	C686.490723,94.190750 688.372620,89.878563 690.554138,86.518196 
	C690.961060,85.891403 689.908386,84.317093 689.226685,82.272469 
	C687.357117,85.729698 686.348450,88.219307 684.805664,90.315826 
	C681.739868,94.482071 677.277466,95.631676 672.391968,94.841759 
	C668.192993,94.162834 666.304199,90.961502 665.673279,87.142395 
	C665.006775,83.107750 664.773376,79.001564 664.290955,74.349663 
	C666.250122,74.221710 668.011353,74.106682 670.706299,73.990326 
M697.973267,69.506027 
	C697.973206,75.163147 698.013245,80.820641 697.959473,86.477249 
	C697.921448,90.482590 699.572754,95.310036 692.241760,96.041008 
	C692.628235,96.451965 693.014648,96.862915 693.401123,97.273872 
	C703.721985,97.273872 714.042847,97.273872 724.363770,97.273872 
	C724.422302,96.825462 724.480835,96.377060 724.539429,95.928650 
	C722.587097,95.404526 720.634827,94.880394 718.176880,94.220528 
	C718.176880,84.913040 717.913818,75.464821 718.339783,66.047768 
	C718.464844,63.281364 720.256165,60.422913 721.814697,57.939819 
	C723.149170,55.813744 725.266541,54.378548 727.832214,57.114975 
	C726.097351,58.529613 723.823486,59.468826 723.237427,61.038265 
	C721.670288,65.235222 724.729675,69.856789 729.155334,70.863350 
	C734.906006,72.171280 740.257446,68.339073 740.946167,62.419834 
	C741.619751,56.630959 737.338318,50.920124 731.805359,51.141853 
	C727.437134,51.316914 723.113708,52.611027 718.101868,53.530846 
	C711.019897,49.802853 702.432373,52.964294 695.360474,52.178841 
	C696.351624,54.929340 697.576660,57.171654 697.906799,59.538761 
	C698.316223,62.474957 697.984741,65.514488 697.973267,69.506027 
M70.673187,66.121368 
	C79.999664,61.799644 89.258476,57.319397 98.708008,53.285954 
	C100.667992,52.449345 103.620934,52.596920 105.627678,53.445827 
	C114.020172,56.996071 122.243233,60.950748 130.495636,64.826904 
	C136.420822,67.609955 142.294128,70.503448 149.148148,73.809578 
	C146.880417,74.862617 145.250793,75.155388 144.374100,76.127319 
	C142.768845,77.906975 141.608337,80.087769 140.262360,82.101295 
	C142.617233,82.485847 145.261383,83.740814 147.266937,83.074280 
	C151.481171,81.673706 155.447006,79.414810 159.324493,77.178307 
	C160.514709,76.491791 161.764435,74.724976 161.750351,73.466698 
	C161.736237,72.206406 160.456360,70.361122 159.253250,69.803352 
	C141.665970,61.649738 123.960571,53.750557 106.384781,45.572697 
	C103.182693,44.082794 100.639671,44.066906 97.508278,45.677494 
	C92.211349,48.401894 86.647041,50.603462 81.215775,53.070263 
	C69.292870,58.485458 57.343674,63.845539 45.489502,69.407761 
	C41.507595,71.276146 40.755184,75.515633 44.042957,77.237404 
	C48.867958,79.764206 53.945751,81.874519 59.082424,83.691299 
	C60.298435,84.121391 62.177094,82.677963 63.750931,82.096352 
	C62.976002,80.324692 62.606457,78.128891 61.316559,76.896004 
	C59.917828,75.559090 57.661831,75.119080 54.738068,73.827980 
	C60.557297,71.033165 65.286308,68.761955 70.673187,66.121368 
M451.010803,174.684418 
	C451.885925,165.513168 453.960297,156.687393 459.565247,149.164612 
	C462.544434,145.166031 466.528748,142.153625 471.904205,143.224960 
	C477.023376,144.245209 479.678650,147.762177 480.183624,153.036957 
	C480.494415,156.283661 481.236450,159.489075 481.784851,162.713028 
	C482.386993,162.728973 482.989136,162.744919 483.591278,162.760864 
	C485.026581,155.699921 486.461914,148.638977 487.897247,141.578049 
	C487.414429,141.388260 486.931641,141.198471 486.448853,141.008682 
	C485.187317,142.337463 483.925751,143.666245 482.713593,144.942993 
	C471.961914,139.008499 468.894806,138.657791 461.224731,142.376877 
	C447.811859,148.880508 439.593445,168.069305 444.179535,182.174774 
	C447.546661,192.530991 459.850830,196.087433 468.349243,189.155380 
	C469.920715,187.873566 471.468536,186.562729 473.415131,184.942474 
	C473.899902,187.681610 474.253937,189.681915 474.607971,191.682220 
	C475.014618,191.807373 475.421265,191.932541 475.827911,192.057693 
	C476.537018,190.782455 477.537628,189.583771 477.896667,188.216599 
	C478.733978,185.028137 479.531647,181.785126 479.853394,178.515778 
	C480.337189,173.599884 481.385529,169.437851 487.438751,169.136856 
	C487.483215,169.134644 487.497803,168.531250 487.519196,168.207916 
	C482.517853,166.031738 468.196106,166.553757 465.615204,169.102524 
	C466.038940,169.356079 466.408142,169.735931 466.828217,169.804626 
	C473.516785,170.898529 474.296814,172.210083 471.602661,178.623123 
	C470.781036,180.578857 469.682648,182.533371 468.282806,184.107742 
	C465.145782,187.636002 461.577118,190.933868 456.329376,188.866714 
	C451.248718,186.865387 450.988556,182.205551 451.003265,177.593994 
	C451.005402,176.927856 451.004669,176.261719 451.010803,174.684418 
M636.246948,188.335220 
	C634.509949,191.034454 636.694275,190.895416 638.243958,190.939621 
	C641.739990,191.039368 645.241211,191.041519 648.738586,190.981644 
	C651.396423,190.936157 654.051514,190.733856 657.952454,190.539230 
	C656.394897,189.050598 656.033081,188.412415 655.529968,188.268478 
	C649.455505,186.530899 649.296936,186.156677 652.764465,180.801025 
	C653.574646,179.549759 654.453857,178.342880 655.309937,177.121658 
	C657.165466,174.474777 666.226624,172.605881 668.801147,174.445587 
	C669.368225,174.850815 669.816956,175.809113 669.837524,176.526566 
	C669.941284,180.138443 669.885193,183.754929 669.885193,187.198776 
	C667.244812,187.882248 665.240417,188.401093 663.235962,188.919952 
	C663.331116,189.335083 663.426270,189.750214 663.521423,190.165344 
	C670.530151,190.165344 677.538818,190.165344 684.547546,190.165344 
	C677.996094,185.922913 677.996216,185.922913 677.995483,177.294693 
	C677.994568,166.965317 678.014893,156.635864 677.971130,146.306671 
	C677.963928,144.616196 677.674377,142.926926 677.365845,139.648560 
	C675.080017,142.053329 673.721497,143.146317 672.780884,144.524490 
	C664.200684,157.096161 655.634888,169.678589 647.200623,182.348267 
	C644.704956,186.097153 641.632874,188.368088 636.246948,188.335220 
M588.378906,189.051880 
	C594.360840,184.189178 597.157593,177.465408 598.617493,170.251266 
	C599.168030,167.530350 598.621094,164.240875 597.510376,161.670410 
	C596.918945,160.301880 594.090149,159.424438 592.203186,159.291565 
	C591.255127,159.224792 589.177551,161.489944 589.337402,162.395981 
	C589.625061,164.027054 591.283203,165.385452 592.236206,166.939072 
	C593.137939,168.408966 594.900085,170.368378 594.497742,171.445206 
	C592.724121,176.192459 590.726624,180.975174 587.961975,185.188461 
	C586.298462,187.723587 583.348511,190.054932 578.385498,187.866760 
	C580.537903,178.873627 582.697266,169.851547 584.856018,160.832123 
	C579.250610,159.636765 579.523132,160.169113 576.868652,167.400803 
	C574.464478,173.950577 570.725891,180.055176 567.126221,186.087921 
	C566.297913,187.476028 563.632874,187.768204 561.813110,188.564728 
	C562.035034,186.729980 562.027649,184.831009 562.520325,183.072113 
	C564.244995,176.914490 566.509705,170.882904 567.828186,164.646759 
	C568.556274,161.203110 566.045532,159.102982 562.428162,159.073715 
	C557.245483,159.031830 551.634888,167.388702 553.618835,173.907806 
	C555.037842,171.021927 555.851318,168.824509 557.122925,166.935547 
	C558.372681,165.079163 560.087524,163.535950 561.598328,161.855316 
	C562.097778,162.237274 562.597229,162.619232 563.096619,163.001175 
	C562.345337,165.131042 561.539856,167.243607 560.853455,169.394196 
	C559.211487,174.539291 557.149719,179.622177 556.261169,184.899185 
	C555.926208,186.888657 557.880615,190.581787 559.653992,191.267502 
	C561.772156,192.086578 564.982605,190.899521 567.402893,189.850327 
	C569.220825,189.062271 570.538452,187.120193 572.078857,185.691879 
	C571.954163,186.205093 571.829529,186.718307 571.704895,187.231522 
	C574.088623,188.813293 576.348755,191.396515 578.889099,191.710114 
	C581.730347,192.060898 584.825684,190.354218 588.378906,189.051880 
M745.529480,175.991318 
	C746.350098,172.319016 747.545776,168.675232 747.828064,164.961975 
	C747.962830,163.188324 746.695129,160.030182 745.478394,159.708481 
	C743.226196,159.112946 740.320374,159.642242 738.104187,160.634949 
	C735.876038,161.632980 734.156311,163.765808 732.229797,165.387833 
	C734.170044,157.733673 736.170959,149.840073 738.402649,141.036026 
	C733.171509,141.551636 728.733276,139.721848 723.187134,143.031052 
	C726.606934,143.757446 728.590820,144.178848 731.297119,144.753677 
	C727.172668,160.058548 723.118652,175.101852 719.061096,190.158127 
	C724.495117,191.336334 724.262939,191.208725 726.150146,187.079025 
	C729.300049,180.186234 732.641968,173.365936 736.274475,166.718033 
	C737.391724,164.673233 739.720398,163.290344 741.494324,161.604340 
	C742.075562,161.985580 742.656799,162.366806 743.238037,162.748047 
	C742.429565,165.309891 741.693604,167.897415 740.796387,170.427795 
	C739.307800,174.625809 737.440369,178.710205 736.246338,182.985962 
	C735.105103,187.072205 737.433105,191.830536 740.535583,191.705353 
	C742.899719,191.609970 745.932922,190.449478 747.356628,188.697037 
	C749.679016,185.838516 752.581848,182.624908 751.832397,178.499878 
	C751.365540,178.283218 750.898682,178.066559 750.431885,177.849899 
	C748.145813,181.604935 745.859802,185.359970 743.573792,189.115005 
	C743.050354,188.953140 742.526978,188.791260 742.003601,188.629395 
	C742.003601,187.257690 741.678833,185.784103 742.070618,184.535309 
	C742.910034,181.859741 744.119629,179.300293 745.529480,175.991318 
M227.999008,170.500336 
	C226.665771,175.278610 225.614655,180.164551 223.853745,184.779648 
	C223.193634,186.509689 220.964722,187.722000 219.288452,188.947998 
	C218.495804,189.527725 217.320175,189.583817 216.318054,189.877151 
	C216.297546,190.321320 216.277023,190.765488 216.256516,191.209656 
	C217.833725,191.468582 219.408859,191.935471 220.988525,191.951294 
	C228.820877,192.029739 236.654419,191.990036 244.487549,191.990356 
	C256.993164,191.990860 257.018188,191.998383 260.819214,180.205551 
	C261.624329,177.707657 262.173218,175.127182 262.840149,172.584763 
	C258.013397,176.965576 255.078400,182.755112 250.448654,186.380325 
	C245.258820,190.444077 238.318130,189.331711 232.345749,188.615067 
	C231.887222,187.750305 231.713898,187.578552 231.744644,187.459457 
	C235.215683,174.013474 238.618423,160.548141 242.347946,147.173950 
	C242.642105,146.119064 245.213440,145.697281 246.728409,144.985443 
	C247.848618,144.459076 248.971985,143.939392 250.093948,143.416748 
	C240.335846,141.098709 230.576538,141.732315 228.010422,144.258087 
	C230.127258,144.716248 231.948334,145.110397 234.533417,145.669907 
	C232.375015,153.824615 230.274307,161.761353 227.999008,170.500336 
M381.567474,183.854233 
	C380.944519,187.451889 381.650421,191.022415 385.479401,191.621262 
	C387.697632,191.968185 390.928467,190.347565 392.607025,188.574356 
	C395.080261,185.961746 397.116608,182.578873 396.721069,178.770294 
	C396.287628,178.608017 395.854187,178.445740 395.420746,178.283478 
	C393.162445,181.853790 390.904175,185.424118 388.645874,188.994446 
	C388.092377,188.740234 387.538910,188.486008 386.985413,188.231796 
	C387.348724,186.433289 387.500275,184.558823 388.113495,182.850006 
	C390.271576,176.836517 393.887573,171.291382 393.046173,164.399048 
	C392.507751,159.988495 390.260071,157.786179 386.141144,159.288391 
	C383.832123,160.130524 381.925720,162.262222 380.048492,164.035797 
	C378.841919,165.175690 378.018280,166.720901 376.375214,168.971939 
	C376.174316,166.354828 376.112305,165.051819 375.967987,163.757980 
	C375.485718,159.433685 372.534485,157.884674 368.548401,159.841141 
	C365.237793,161.466064 361.589752,168.391403 361.933411,173.929413 
	C364.804901,169.580734 367.130463,166.058868 369.456024,162.536987 
	C370.035339,162.858063 370.614624,163.179138 371.193939,163.500214 
	C368.893585,172.449524 366.593262,181.398849 364.279755,190.399353 
	C370.104462,191.181458 369.990326,191.119766 371.771637,186.579300 
	C373.639648,181.817734 375.375549,176.922256 377.949890,172.544373 
	C380.239288,168.651047 381.697906,163.576416 388.130371,162.115219 
	C387.659119,164.528412 387.479584,166.396088 386.918457,168.141068 
	C385.307129,173.152237 383.541412,178.113754 381.567474,183.854233 
M323.408661,160.355408 
	C319.481873,159.872635 315.401093,161.347931 311.553162,159.144135 
	C310.668976,158.637756 308.982269,159.313110 307.738708,159.688889 
	C299.121368,162.292770 291.520355,177.340042 294.473541,185.854507 
	C296.680725,192.218201 302.961792,194.101334 308.403961,190.027069 
	C309.512054,189.197495 310.606873,188.350189 312.144958,187.177856 
	C313.162201,192.258438 316.171295,192.716904 319.767334,191.555588 
	C323.558807,190.331131 327.389679,182.930084 326.622467,177.436600 
	C323.937622,181.429642 321.619446,184.877350 319.301270,188.325058 
	C318.861786,188.111435 318.422302,187.897812 317.982788,187.684174 
	C318.227783,185.947388 318.347595,184.181778 318.739563,182.478806 
	C320.397949,175.273575 322.137238,168.086960 323.408661,160.355408 
M536.833496,159.059341 
	C526.786316,160.841812 521.956848,170.658020 521.076355,178.436386 
	C520.507996,183.458160 523.879028,190.098328 527.467834,191.693069 
	C531.219299,193.360092 537.904419,191.474503 541.680115,187.836899 
	C546.232300,183.451218 548.124390,177.799744 548.728699,171.839355 
	C549.500122,164.230560 544.991943,159.363022 536.833496,159.059341 
M811.139343,186.871887 
	C813.497986,191.682053 816.112061,192.936813 821.046387,191.442459 
	C829.894226,188.762863 833.681702,181.615082 835.762817,173.559067 
	C836.702393,169.922012 836.349182,165.777908 835.719971,162.007797 
	C835.515381,160.781845 832.654724,159.516937 830.854065,159.225021 
	C829.815308,159.056625 827.365601,160.974945 827.473511,161.643707 
	C827.749573,163.353729 829.078003,164.904633 830.031677,166.491440 
	C830.968323,168.049927 833.031372,169.812256 832.750671,171.073700 
	C831.301819,177.586075 828.908813,183.843201 822.872925,187.589172 
	C821.155029,188.655350 818.765808,188.639679 815.178894,189.467636 
	C816.688599,185.215393 817.755798,182.528458 818.596436,179.772415 
	C820.124207,174.763397 822.021912,169.789963 822.801941,164.655365 
	C823.391724,160.773209 820.869629,158.570053 816.588623,159.017227 
	C811.645447,159.533600 806.539978,167.858887 808.438538,172.978622 
	C811.842102,169.768951 811.874329,163.754044 817.622192,162.571335 
	C817.229370,165.395737 816.093262,167.865677 815.328308,170.445648 
	C813.795959,175.613953 812.466614,180.842438 811.139343,186.871887 
M842.783264,169.571579 
	C842.189941,173.112534 841.192505,176.641602 841.087891,180.196930 
	C840.873535,187.483536 844.739807,191.860519 850.885742,191.968079 
	C856.721008,192.070206 862.605103,186.484680 862.531433,179.827179 
	C860.580811,181.443146 859.524780,183.955444 857.643555,185.371964 
	C855.466370,187.011322 852.558777,188.424362 849.977722,188.408432 
	C848.979675,188.402298 847.408630,184.267471 847.175171,181.907135 
	C846.883484,178.957275 847.596375,176.381439 851.791382,175.702011 
	C855.389404,175.119278 859.302673,173.469147 861.951477,171.056091 
	C863.843201,169.332657 864.858398,165.378906 864.368652,162.777374 
	C864.066895,161.174683 860.282043,159.398636 857.917786,159.167892 
	C850.648682,158.458466 846.553284,163.359177 842.783264,169.571579 
M787.256042,191.599136 
	C795.053589,192.506210 800.963928,188.114456 802.526978,179.246597 
	C800.959656,180.342285 799.885071,180.805161 799.232239,181.610092 
	C797.889832,183.265366 797.126404,185.649445 795.469788,186.722336 
	C793.582458,187.944580 789.856812,189.267166 788.932983,188.403625 
	C787.208069,186.791229 786.392151,183.668503 786.212097,181.103104 
	C786.054077,178.851669 786.677551,176.534958 790.103943,175.812531 
	C793.881104,175.016113 797.622681,173.318039 800.942139,171.294800 
	C804.070984,169.387695 805.112976,165.633987 803.412354,162.541550 
	C802.429077,160.753723 799.409058,159.568726 797.108337,159.116730 
	C789.235229,157.570007 780.081482,167.911682 780.022400,176.229553 
	C779.980164,182.174438 779.140076,188.504272 787.256042,191.599136 
M340.779114,167.406403 
	C338.723755,175.087097 336.668365,182.767792 334.638000,190.355011 
	C339.186432,191.859116 340.819427,190.253510 342.020935,186.815979 
	C344.530304,179.636734 347.496918,172.617294 350.702545,164.443878 
	C353.508423,169.231430 356.537354,170.528595 359.170929,167.690536 
	C360.417694,166.346985 360.372742,162.585754 359.402863,160.694275 
	C358.001770,157.961884 353.393921,158.588211 350.895538,161.404846 
	C349.856140,162.576645 349.037415,163.944214 347.925415,165.491104 
	C343.313538,157.259689 339.652191,157.035797 335.116791,163.902237 
	C333.456726,166.415497 332.396698,169.325150 331.062958,172.053970 
	C331.614410,172.432312 332.165833,172.810654 332.717285,173.189011 
	C335.025543,169.693893 337.333771,166.198776 339.642029,162.703674 
	C340.002716,162.889969 340.363403,163.076248 340.724091,163.262543 
	C340.786713,164.396484 340.849304,165.530411 340.779114,167.406403 
M267.273346,185.566788 
	C270.917480,191.706573 274.850769,193.524002 280.828766,191.830231 
	C285.024750,190.641357 288.981262,185.172470 289.128326,178.927872 
	C286.682617,182.024292 284.984650,184.243362 283.212921,186.401886 
	C280.106628,190.186310 276.235535,190.811157 274.096039,187.924774 
	C270.950684,183.681396 273.702148,177.438522 278.687958,175.835480 
	C282.453278,174.624832 286.288696,172.576920 289.091766,169.866348 
	C290.528564,168.476959 290.721741,164.345047 289.717255,162.329605 
	C288.850159,160.589844 285.403442,159.094879 283.258026,159.287170 
	C280.342773,159.548462 277.227661,161.046692 274.819031,162.845596 
	C267.480988,168.326080 266.287964,176.241043 267.273346,185.566788 
M503.521515,179.982712 
	C505.787231,174.871552 508.052948,169.760391 510.093567,165.156982 
	C512.452209,166.870026 513.824402,168.622528 515.311890,168.726593 
	C516.697754,168.823532 519.295288,167.304642 519.428650,166.252350 
	C519.687561,164.209915 519.208801,161.359573 517.862305,160.054611 
	C516.789429,159.014832 513.735291,159.182129 511.991150,159.883804 
	C509.803528,160.763916 508.055664,162.737045 506.188446,164.183838 
	C506.159607,164.131531 505.633575,163.328552 505.253235,162.461639 
	C503.633087,158.768616 500.213959,157.397919 497.652588,160.186966 
	C494.501678,163.617905 492.271423,167.894333 489.643219,171.805313 
	C490.346283,172.286011 491.049347,172.766724 491.752411,173.247421 
	C494.023041,169.746445 496.293671,166.245468 498.564301,162.744492 
	C499.014557,162.930878 499.464813,163.117249 499.915100,163.303635 
	C499.781219,165.191498 499.917786,167.147247 499.463898,168.954758 
	C497.977112,174.875427 496.167755,180.716293 494.744049,186.650620 
	C494.445557,187.894867 495.262817,189.406799 495.565918,190.795364 
	C497.113892,190.051147 499.306610,189.707520 500.071381,188.476685 
	C501.523651,186.139435 502.158386,183.294220 503.521515,179.982712 
M710.983032,159.064438 
	C707.827393,159.711212 704.191345,159.572250 701.606384,161.152527 
	C693.930115,165.845261 691.496460,173.407379 692.028320,182.077026 
	C692.548767,190.562195 700.799194,195.105743 707.738220,190.294174 
	C710.835449,188.146515 712.842163,184.426163 715.343811,181.419556 
	C714.779968,180.918259 714.216187,180.416977 713.652405,179.915680 
	C712.644104,180.884247 711.559875,181.786682 710.645142,182.836746 
	C709.239990,184.449936 708.172119,186.425415 706.568359,187.783203 
	C702.955200,190.842026 698.344727,189.325012 698.285156,184.674515 
	C698.186951,177.003799 699.919678,169.527191 705.187439,163.515106 
	C706.169861,162.393768 708.277039,162.257812 709.865112,161.667084 
	C709.596985,163.082977 709.077576,164.507584 709.126282,165.912491 
	C709.183289,167.555328 709.735535,169.181000 710.072937,170.814102 
	C711.957458,169.960571 714.984375,169.541199 715.505676,168.169586 
	C716.898621,164.504395 716.065186,160.926193 710.983032,159.064438 
M511.771698,45.992672 
	C520.432434,45.988873 523.510193,44.075619 523.972107,38.408424 
	C524.600647,30.696457 521.296692,27.803976 512.090881,28.006956 
	C506.381500,28.132843 503.386597,30.916956 503.041656,36.419289 
	C502.726318,41.449585 505.652710,45.005707 511.771698,45.992672 
M762.121765,174.680008 
	C761.230225,177.843903 760.029785,180.958786 759.518127,184.182968 
	C758.711914,189.263351 761.703186,192.666611 765.821106,191.861252 
	C770.703308,190.906387 775.347107,183.397217 774.010071,177.426788 
	C771.352295,181.614609 769.017517,185.293518 766.682739,188.972443 
	C766.107239,188.728790 765.531799,188.485153 764.956360,188.241501 
	C765.370483,186.335251 765.616821,184.373138 766.229553,182.533005 
	C768.242432,176.487717 772.147095,170.898361 770.903503,164.091599 
	C770.606812,162.467621 769.722229,160.099060 768.544556,159.688187 
	C766.789246,159.075790 763.642578,159.122208 762.656006,160.254517 
	C759.589050,163.774796 757.260681,167.938644 754.645813,171.852814 
	C755.316406,172.318466 755.987000,172.784119 756.657593,173.249771 
	C759.238770,169.504990 761.820007,165.760223 764.401184,162.015442 
	C765.058838,162.337372 765.716431,162.659317 766.374023,162.981247 
	C765.077209,166.649078 763.780396,170.316910 762.121765,174.680008 
M400.085999,202.108292 
	C408.192444,201.996338 415.215179,190.040695 410.911499,183.306580 
	C410.095734,182.030121 407.599854,181.121552 405.993805,181.271408 
	C404.622406,181.399384 402.520630,183.176559 402.360413,184.430969 
	C402.155823,186.032654 403.318054,188.034958 404.398071,189.487762 
	C405.021057,190.325760 406.643463,190.420761 409.389679,191.426407 
	C405.793213,195.278091 402.878265,198.399918 400.085999,202.108292 
M604.732239,181.991211 
	C602.989929,184.384506 602.196350,186.776932 605.144043,188.826859 
	C609.605774,191.929642 609.708252,194.357681 605.435120,198.023666 
	C603.995972,199.258286 602.583374,200.523895 601.158691,201.775360 
	C609.510315,200.020416 613.070129,195.305405 612.995911,187.642731 
	C612.936707,181.530090 611.794189,180.610229 604.732239,181.991211 
M771.588684,143.044891 
	C770.420898,144.429153 768.308472,145.848190 768.357788,147.187622 
	C768.404602,148.461243 770.700073,150.593903 772.026855,150.609116 
	C773.309570,150.623856 775.620850,148.438156 775.643738,147.185501 
	C775.668518,145.825363 773.574646,144.426544 771.588684,143.044891 
M51.863617,34.279747 
	C51.459751,35.800358 50.912197,37.310513 50.799984,38.852345 
	C50.782234,39.096222 52.958473,40.003365 53.710155,39.672359 
	C54.652760,39.257294 55.962479,37.471008 55.718327,37.000267 
	C55.109859,35.827080 53.711342,35.063652 51.863617,34.279747 
M31.042259,35.570347 
	C31.247364,36.930882 31.241890,38.389656 31.799822,39.585590 
	C31.946518,39.900028 34.296700,39.790359 34.814518,39.179710 
	C35.510654,38.358765 35.410713,36.862766 35.652489,35.656528 
	C34.291954,35.451626 32.931419,35.246723 31.042259,35.570347 
M41.573357,35.039116 
	C41.395275,36.442696 41.052151,37.862915 41.190491,39.234589 
	C41.215542,39.482971 43.559200,40.018669 44.217197,39.552776 
	C45.078255,38.943108 46.031796,36.883045 45.699669,36.484089 
	C44.901730,35.525589 43.377232,35.171940 41.573357,35.039116 
z"/>
<path fill="#012D78" opacity="1.000000" stroke="none" 
	d="
M68.013855,88.476036 
	C69.242973,86.061707 69.999313,83.198128 71.768791,82.273582 
	C80.880089,77.512947 90.182777,73.093002 99.602608,68.974915 
	C101.090469,68.324463 103.517548,69.822365 105.510368,70.326965 
	C104.641594,72.061684 104.223366,74.563255 102.819878,75.387848 
	C98.551147,77.895813 93.889153,79.729500 89.406143,81.879654 
	C87.038467,83.015228 84.724548,84.262894 81.137489,86.099327 
	C88.602699,89.328239 94.894936,92.479301 101.508408,94.653099 
	C103.537895,95.320175 106.553307,93.548569 108.932823,92.482178 
	C115.439430,89.566254 121.788315,86.295959 128.313187,83.423897 
	C133.961121,80.937828 135.924866,82.324234 135.982819,88.479172 
	C136.033005,93.811111 136.399307,99.190804 135.797974,104.454811 
	C135.532883,106.775383 133.728119,109.804482 131.739395,110.881523 
	C125.200066,114.423096 118.316971,117.362488 111.444382,120.243187 
	C107.668068,121.826050 105.544823,123.805252 105.896736,128.354568 
	C106.332397,133.986557 105.994751,139.677933 106.000870,145.343658 
	C106.009895,153.695740 107.328346,154.984695 115.950142,154.995575 
	C127.281563,155.009888 138.613083,154.977325 149.944427,155.010025 
	C157.933823,155.033096 162.897278,159.595917 162.967453,166.885712 
	C163.030090,173.392273 157.028351,178.981400 149.879807,178.990387 
	C132.049484,179.012817 114.218948,179.039520 96.388901,178.965927 
	C93.159111,178.952591 91.077705,179.379578 89.656006,183.083145 
	C87.386513,188.995270 82.202698,191.773834 75.905693,191.956116 
	C69.911690,192.129608 63.908592,192.026184 57.909828,191.989761 
	C48.924740,191.935211 42.609924,185.198730 41.868416,176.442596 
	C41.055470,166.842834 49.691605,158.807419 57.704132,158.985672 
	C63.200436,159.107941 68.702812,159.072495 74.200554,158.986023 
	C81.236427,158.875366 86.427628,162.014297 89.477684,168.170715 
	C90.977448,171.197906 92.819824,172.086029 96.035057,172.060455 
	C113.197769,171.923935 130.362137,171.995682 147.525940,171.994492 
	C148.025833,171.994461 148.528595,172.017624 149.025131,171.974136 
	C152.204788,171.695801 155.042435,171.062592 154.970947,166.901733 
	C154.899170,162.723495 151.965912,162.075623 148.829559,162.052063 
	C136.498947,161.959381 124.166527,162.073730 111.836815,161.932617 
	C109.594765,161.906952 107.218964,161.379929 105.155464,160.498077 
	C100.966400,158.707809 98.971771,155.462173 98.932014,150.686127 
	C98.864410,142.563049 98.548409,134.426071 97.853935,126.336388 
	C97.697266,124.511475 95.920395,122.254295 94.254105,121.248672 
	C90.731064,119.122459 86.608330,117.984695 83.105370,115.832947 
	C81.664780,114.948059 81.188423,112.493423 80.273483,110.752800 
	C82.290825,110.231621 84.505020,108.918343 86.283005,109.360222 
	C89.606567,110.186234 92.952950,111.622559 95.791664,113.541809 
	C100.729347,116.880173 105.115120,115.365814 109.721710,113.112022 
	C113.889404,111.072968 118.033699,108.899940 122.390724,107.357895 
	C126.875198,105.770744 128.738190,103.101692 128.038925,98.423737 
	C127.797958,96.811722 128.000610,95.133392 128.000610,92.619476 
	C125.315399,93.535187 123.170731,94.103584 121.162865,94.983971 
	C116.457207,97.047256 111.731888,99.096169 107.177620,101.464508 
	C103.592651,103.328789 100.405426,103.226959 96.784782,101.453590 
	C90.290886,98.272903 83.598343,95.497765 75.999207,92.112267 
	C75.999207,99.284561 76.001808,105.379395 75.998383,111.474236 
	C75.995667,116.306725 76.330070,121.177940 75.793671,125.950912 
	C75.603447,127.643509 73.285133,129.096924 71.938324,130.659531 
	C70.963539,129.204407 69.204033,127.784142 69.137589,126.288658 
	C68.584496,113.840691 68.343590,101.378853 68.013855,88.476036 
M67.464157,184.999710 
	C69.958099,184.982162 72.470955,185.153854 74.941956,184.906815 
	C79.757439,184.425323 83.490211,181.025467 83.945763,177.004761 
	C84.475060,172.333160 81.702377,167.674377 76.542793,166.961792 
	C70.218170,166.088333 63.665539,165.972656 57.303772,166.548615 
	C52.362526,166.995987 48.613491,172.285507 49.071896,176.278900 
	C49.635929,181.192490 53.923454,184.793320 59.516586,184.975998 
	C61.842144,185.051956 64.172012,184.995804 67.464157,184.999710 
z"/>
<path fill="#012D78" opacity="1.000000" stroke="none" 
	d="
M383.924194,54.953354 
	C384.203400,58.703518 385.048248,62.520935 384.612488,66.186104 
	C384.115631,70.365440 378.728882,72.237839 373.044861,70.830994 
	C368.943115,69.815765 366.807404,66.157204 368.199524,61.991375 
	C368.511108,61.058971 370.175415,60.659447 370.895111,59.757721 
	C371.500916,58.998684 371.639099,57.866470 371.984283,56.899460 
	C371.086121,56.728374 369.604828,56.138283 369.380096,56.451073 
	C367.152893,59.550674 363.627350,62.671627 363.341736,66.030785 
	C362.527344,75.608994 363.055603,85.301369 363.055603,95.218216 
	C364.848480,95.696564 366.373260,96.103371 369.266663,96.875328 
	C367.101929,97.473480 366.182526,97.946602 365.261780,97.949341 
	C349.432983,97.996307 333.603546,98.041824 317.775940,97.898666 
	C316.205688,97.884476 314.646515,96.640930 312.258423,95.613556 
	C309.463593,99.780739 304.171875,99.058350 299.040771,99.003983 
	C290.242462,98.910736 285.176147,94.010361 285.032104,85.163231 
	C284.912720,77.833817 284.992523,70.500999 285.003052,63.169712 
	C285.008728,59.219456 286.135437,54.757027 279.610474,53.910927 
	C279.834259,53.491909 280.058044,53.072887 280.281830,52.653866 
	C281.735779,52.438084 283.187134,52.059906 284.644196,52.036247 
	C289.474915,51.957809 294.316650,52.187672 299.136780,51.948605 
	C302.808289,51.766510 304.151581,53.035160 304.059296,56.787609 
	C303.846283,65.446579 303.995941,74.114464 303.998932,82.778732 
	C303.999268,83.778450 303.730804,84.878044 304.054840,85.759315 
	C305.057983,88.487526 306.339569,93.427734 307.419220,93.403076 
	C311.557617,93.308556 312.748260,89.274048 312.858276,85.799599 
	C313.148102,76.644714 313.113037,67.470367 312.833710,58.315170 
	C312.783813,56.678387 310.944183,55.096210 309.559265,52.899231 
	C310.270172,52.680035 311.325653,52.093994 312.393707,52.070057 
	C317.223358,51.961826 322.066864,52.204357 326.885223,51.945400 
	C330.754089,51.737469 332.148376,53.051193 332.069946,57.036114 
	C331.850342,68.195297 332.203857,79.367210 331.904633,90.522659 
	C331.783020,95.056931 333.401428,96.152542 337.657715,96.124069 
	C341.752075,96.096664 343.204132,94.899345 343.087128,90.713905 
	C342.826447,81.390434 343.018280,72.054642 342.998474,62.723934 
	C342.990448,58.938763 344.094299,54.563065 337.850372,53.980927 
	C342.879822,50.541897 361.570465,51.470200 364.021057,54.849472 
	C372.355530,49.589695 377.425690,49.560993 383.680023,54.870506 
	C383.973297,55.001175 383.924194,54.953354 383.924194,54.953354 
z"/>
<path fill="#012D78" opacity="1.000000" stroke="none" 
	d="
M71.000000,19.999683 
	C108.155609,20.000360 144.811218,19.995674 181.466812,20.019091 
	C183.116776,20.020145 185.021591,19.825073 186.330170,20.565407 
	C187.260818,21.091927 187.850342,23.086409 187.721008,24.335529 
	C187.625229,25.260225 186.247589,26.522787 185.227722,26.776054 
	C183.493713,27.206676 181.591812,26.994719 179.760452,26.994963 
	C130.941849,27.001446 82.123238,26.997299 33.304626,27.003706 
	C24.025465,27.004925 22.932487,28.041691 23.017979,37.299915 
	C23.121353,48.494919 21.567839,46.871410 32.939827,46.982376 
	C42.436069,47.075035 51.933929,47.015621 61.431030,46.998665 
	C64.360741,46.993435 67.565331,46.940701 67.786247,50.826057 
	C68.013412,54.821457 64.157669,54.593769 61.947250,54.694035 
	C53.134773,55.093765 44.297504,54.974224 35.469299,54.993347 
	C23.000460,55.020351 23.000235,55.000065 23.000265,67.670280 
	C23.000315,87.830864 22.992279,107.991463 23.004822,128.152039 
	C23.010069,136.588074 23.841440,137.159103 32.094501,137.087585 
	C50.254311,136.930237 68.416298,137.031540 86.577354,137.004074 
	C89.718086,136.999329 92.650398,137.899750 92.662468,141.375824 
	C92.674835,144.933487 89.507011,145.003754 86.726685,145.001495 
	C67.565819,144.986023 48.401016,144.773148 29.246166,145.113159 
	C22.522930,145.232498 15.702414,138.561737 15.797836,131.605179 
	C16.252562,98.454750 15.991860,65.294632 16.009012,32.137981 
	C16.012909,24.605883 20.427744,20.077026 28.013380,20.030602 
	C42.175117,19.943928 56.337742,20.001883 71.000000,19.999683 
z"/>
<path fill="#012D78" opacity="1.000000" stroke="none" 
	d="
M503.999878,65.059357 
	C504.000000,61.611710 504.000000,58.652889 504.000000,55.798443 
	C501.724609,55.137630 500.076324,54.658943 498.223785,54.120937 
	C498.617126,53.316669 498.806610,52.562126 499.014618,52.556988 
	C506.313019,52.376812 513.616577,52.140862 520.907593,52.342010 
	C521.639282,52.362190 522.873474,55.083736 522.895996,56.566471 
	C523.068176,67.891876 523.202148,79.226402 522.902161,90.546280 
	C522.781250,95.109642 524.455933,96.123528 528.677185,96.122635 
	C532.838684,96.121750 534.152405,94.808807 534.049805,90.680031 
	C533.801636,80.690956 533.817261,70.687920 534.051880,60.698143 
	C534.137146,57.067051 533.545776,54.544205 529.225586,54.400455 
	C532.350586,50.532673 552.268799,51.141689 554.679138,54.404884 
	C557.889954,53.239056 560.882202,51.417370 564.009521,51.144711 
	C577.330444,49.983318 582.955811,55.429920 582.985413,68.908783 
	C583.001160,76.072021 583.029480,83.235634 582.972961,90.398445 
	C582.948853,93.458244 582.626404,96.575089 586.958923,97.459518 
	C557.995972,97.459518 529.033020,97.459518 501.459808,97.459518 
	C502.321228,94.940193 503.788971,92.512108 503.882538,90.032196 
	C504.190033,81.880981 503.999146,73.710968 503.999878,65.059357 
M562.974182,66.598358 
	C562.970276,64.608856 563.226074,62.571171 562.869080,60.647198 
	C562.640259,59.414021 561.693665,57.657707 560.729126,57.398170 
	C559.723083,57.127441 557.676514,58.053829 557.194397,59.014008 
	C555.828247,61.734509 554.300293,64.701935 554.147583,67.640305 
	C553.735046,75.577759 554.176575,83.556152 553.921753,91.506844 
	C553.807312,95.079002 555.512573,96.360588 558.519409,96.357681 
	C561.563049,96.354736 563.162842,94.988243 563.046753,91.448349 
	C562.785889,83.498199 562.970276,75.533432 562.974182,66.598358 
z"/>
<path fill="#012D78" opacity="1.000000" stroke="none" 
	d="
M623.569519,97.982841 
	C621.647705,97.230568 620.159607,96.485641 618.352417,95.581009 
	C612.605896,99.976875 605.788391,100.182663 598.929138,97.716705 
	C592.765442,95.500839 590.361145,89.748787 589.420776,84.087448 
	C588.481750,78.434311 588.462158,72.365265 589.422546,66.713608 
	C591.548401,54.204304 601.050110,48.530491 613.717896,51.356464 
	C614.823608,51.603138 615.930969,51.842293 617.889465,52.271736 
	C617.889465,44.633263 618.048157,37.402084 617.726013,30.192392 
	C617.675049,29.051727 615.454102,28.008017 613.496521,26.257996 
	C621.442261,26.257996 628.905090,26.131744 636.345154,26.485825 
	C636.973999,26.515747 637.915161,29.758455 637.925354,31.513161 
	C638.039673,51.146622 638.017944,70.781013 637.981689,90.415062 
	C637.976074,93.468750 637.655518,96.557724 642.577087,96.555824 
	C642.377869,97.033943 642.178711,97.512070 641.979553,97.990189 
	C635.987427,97.990189 629.995300,97.990189 623.569519,97.982841 
M609.133118,88.808723 
	C610.408997,90.499870 611.684875,92.191017 612.960693,93.882172 
	C614.704529,92.139366 616.585388,90.507454 618.127197,88.601234 
	C618.777527,87.797226 618.927673,86.417091 618.938538,85.295273 
	C619.008301,78.135033 619.229919,70.960930 618.868225,63.818398 
	C618.691833,60.335094 618.309937,55.379543 613.730591,55.444988 
	C609.053162,55.511833 609.109253,60.350422 609.049744,63.945976 
	C608.917419,71.936905 609.034607,79.931976 609.133118,88.808723 
z"/>
<path fill="#012D78" opacity="1.000000" stroke="none" 
	d="
M253.649063,98.984985 
	C247.578110,98.649002 241.789459,99.074318 236.398239,97.807854 
	C224.294769,94.964554 217.860626,86.618095 215.877579,74.456451 
	C213.818329,61.827530 215.045471,50.103497 223.516098,39.770695 
	C228.606247,33.561512 235.330826,30.683361 242.915024,30.164223 
	C248.654510,29.771355 254.484528,30.625298 260.269379,30.999559 
	C263.836212,31.230322 267.393921,31.602278 271.503143,31.958267 
	C271.503143,38.122662 271.503143,44.768974 271.503143,52.882145 
	C269.610107,51.060741 268.456665,50.180393 267.589233,49.075500 
	C264.329193,44.922974 261.477448,40.402657 257.889526,36.565483 
	C251.979187,30.244627 242.381088,32.242279 239.443115,40.465191 
	C237.738358,45.236568 236.216827,50.407261 236.238693,55.391140 
	C236.282135,65.293884 237.034012,75.245285 238.300476,85.072548 
	C239.132172,91.526276 244.764145,96.602013 249.752991,96.196312 
	C253.591110,95.884186 255.531555,94.349823 255.697418,91.075783 
	C256.023468,84.639198 255.793381,78.174431 255.793381,71.570320 
	C253.469482,71.167854 251.560791,70.837288 249.552551,70.489487 
	C251.801270,67.372757 274.157257,66.829536 277.465271,68.952202 
	C276.557434,71.789200 275.215027,74.200714 275.105408,76.667030 
	C274.797638,83.591110 274.998077,90.537788 274.998077,98.856377 
	C267.175201,93.744110 260.795044,98.354858 253.649063,98.984985 
z"/>
<path fill="#012D78" opacity="1.000000" stroke="none" 
	d="
M383.996368,55.026524 
	C383.829346,52.085224 385.831909,51.999977 387.963898,52.007381 
	C393.453979,52.026455 398.949890,52.162949 404.432343,51.956879 
	C407.915100,51.825970 409.088013,53.135769 409.035492,56.582352 
	C408.880859,66.728447 408.833313,76.882950 409.117249,87.023712 
	C409.180786,89.293472 410.768494,91.520561 411.654480,93.767303 
	C413.419708,91.448151 416.304565,89.309273 416.713196,86.771660 
	C417.522858,81.743454 416.967834,76.495117 416.972382,71.337776 
	C416.975586,67.677643 417.008942,64.016991 416.958191,60.357548 
	C416.919952,57.601746 417.783020,54.304165 411.428925,54.548428 
	C413.923920,52.978573 414.627502,52.156639 415.346100,52.143276 
	C421.498993,52.028896 427.655060,52.101627 433.809235,52.032764 
	C437.093750,51.996014 436.973969,54.236103 436.975647,56.459824 
	C436.984222,67.772949 437.018005,79.086159 436.979614,90.399132 
	C436.969238,93.452118 436.613434,96.579987 441.594971,96.522400 
	C441.365784,97.145050 441.136566,97.767700 440.907379,98.390350 
	C433.400299,97.864822 425.893738,97.331718 418.385529,96.822983 
	C417.403473,96.756439 416.399078,96.708046 415.428619,96.833549 
	C410.257416,97.502335 404.955566,99.318512 399.959198,98.685036 
	C392.119995,97.691116 390.019958,93.762871 389.098022,82.305550 
	C388.486115,74.701256 388.875183,67.007141 389.009399,59.356625 
	C389.064026,56.242340 388.136383,54.568546 384.353333,54.972736 
	C383.924194,54.953354 383.973297,55.001175 383.996368,55.026524 
z"/>
<path fill="#012D78" opacity="1.000000" stroke="none" 
	d="
M446.712830,97.941498 
	C443.812347,97.186935 443.636597,96.399078 445.994110,95.015251 
	C447.174561,94.322342 448.828552,93.007080 448.838013,91.960350 
	C449.009674,72.996559 448.963135,54.030800 448.963135,35.030010 
	C446.887543,34.186348 445.107941,33.462994 443.328339,32.739639 
	C443.390686,32.375328 443.453064,32.011017 443.515411,31.646704 
	C444.242279,31.448719 444.965240,31.094166 445.696625,31.075844 
	C460.641998,30.701464 475.590485,30.434187 490.532959,29.972256 
	C494.144165,29.860617 495.055145,31.406258 495.059448,34.713181 
	C495.065247,39.164028 495.650909,43.611729 495.781189,48.066818 
	C495.807434,48.963680 494.910492,49.887539 494.439209,50.798954 
	C493.531464,50.255634 492.256744,49.929199 491.783844,49.128922 
	C490.277008,46.579002 489.235077,43.752739 487.710999,41.214924 
	C484.130585,35.252979 478.457581,33.480206 471.938354,34.182533 
	C470.878113,34.296749 469.201233,36.128853 469.172943,37.202847 
	C468.945679,45.828415 469.045776,54.462601 469.045776,63.265953 
	C473.644073,64.794235 477.087952,62.961582 479.597931,60.186268 
	C481.914459,57.624859 483.267303,54.191952 486.216492,51.343849 
	C486.216492,60.676437 486.216492,70.009026 486.216492,79.341614 
	C485.850464,79.594513 485.484436,79.847412 485.118408,80.100319 
	C484.095398,78.292206 482.837006,76.575508 482.092926,74.659111 
	C479.714508,68.533386 476.447083,66.550896 469.080322,67.636810 
	C469.080322,75.777100 468.975128,84.049080 469.228302,92.310066 
	C469.256409,93.227348 471.225769,94.619041 472.471680,94.854370 
	C475.097015,95.350212 477.839630,95.224976 480.525330,96.378159 
	C469.449921,98.716949 458.257599,97.680840 446.712830,97.941498 
z"/>
<path fill="#012D78" opacity="1.000000" stroke="none" 
	d="
M180.233536,54.745079 
	C171.253189,54.283108 162.602249,54.121803 153.950684,54.009312 
	C149.618271,53.952980 145.249557,54.300129 140.969131,53.821758 
	C139.280136,53.632996 137.786743,51.693958 136.204285,50.551910 
	C137.752747,49.377060 139.198013,47.403500 140.870361,47.187412 
	C144.805527,46.678940 148.849091,47.002388 152.848785,47.001785 
	C162.848221,47.000278 172.848358,47.071877 182.846710,46.969173 
	C185.950989,46.937283 188.031647,47.619690 188.201126,51.204773 
	C188.302048,53.339882 188.991287,55.458355 188.995560,57.585152 
	C189.043793,81.583405 188.683655,105.588562 189.177917,129.576523 
	C189.348877,137.873459 181.853806,145.428940 173.617096,145.172714 
	C155.468979,144.608139 137.291107,145.029633 119.125694,144.962158 
	C116.318436,144.951736 112.383034,145.858124 112.202553,141.469208 
	C111.998505,136.507080 116.091118,137.042831 119.416351,137.005661 
	C120.916084,136.988892 122.416161,137.001236 123.916077,137.001205 
	C139.915192,137.000824 155.914291,137.008759 171.913406,136.997009 
	C180.564117,136.990662 180.997314,136.555283 180.999161,128.013702 
	C181.003952,105.848267 181.012772,83.682816 180.981628,61.517418 
	C180.978607,59.366722 180.708694,57.216404 180.233536,54.745079 
z"/>
<path fill="#012D78" opacity="1.000000" stroke="none" 
	d="
M670.239502,73.990990 
	C668.011353,74.106682 666.250122,74.221710 664.290955,74.349663 
	C664.773376,79.001564 665.006775,83.107750 665.673279,87.142395 
	C666.304199,90.961502 668.192993,94.162834 672.391968,94.841759 
	C677.277466,95.631676 681.739868,94.482071 684.805664,90.315826 
	C686.348450,88.219307 687.357117,85.729698 689.226685,82.272469 
	C689.908386,84.317093 690.961060,85.891403 690.554138,86.518196 
	C688.372620,89.878563 686.490723,94.190750 683.281677,95.982780 
	C674.175354,101.068062 664.376892,100.458710 655.146606,95.923172 
	C647.735413,92.281487 642.984131,82.174004 644.057007,73.723953 
	C645.356506,63.487999 649.480652,55.027725 660.279053,52.214123 
	C668.383179,50.102539 676.672119,49.562096 684.243652,54.573914 
	C689.112732,57.796921 692.464478,66.053970 690.754883,71.622925 
	C690.433350,72.670319 688.452148,73.805336 687.189270,73.863281 
	C681.704590,74.114952 676.202209,73.982903 670.239502,73.990990 
M665.044495,67.215210 
	C664.670166,70.941628 667.166626,71.540695 669.742676,70.799393 
	C671.063660,70.419258 672.737488,68.465919 672.817444,67.137230 
	C673.001770,64.073929 672.592285,60.887753 671.849304,57.893974 
	C671.497681,56.477371 669.827576,55.388004 668.754822,54.150402 
	C667.772644,55.274036 666.212158,56.268372 665.926147,57.547649 
	C665.289856,60.393345 665.291321,63.381657 665.044495,67.215210 
z"/>
<path fill="#012D78" opacity="1.000000" stroke="none" 
	d="
M697.973267,69.007706 
	C697.984741,65.514488 698.316223,62.474957 697.906799,59.538761 
	C697.576660,57.171654 696.351624,54.929340 695.360474,52.178841 
	C702.432373,52.964294 711.019897,49.802853 718.101868,53.530846 
	C723.113708,52.611027 727.437134,51.316914 731.805359,51.141853 
	C737.338318,50.920124 741.619751,56.630959 740.946167,62.419834 
	C740.257446,68.339073 734.906006,72.171280 729.155334,70.863350 
	C724.729675,69.856789 721.670288,65.235222 723.237427,61.038265 
	C723.823486,59.468826 726.097351,58.529613 727.832214,57.114975 
	C725.266541,54.378548 723.149170,55.813744 721.814697,57.939819 
	C720.256165,60.422913 718.464844,63.281364 718.339783,66.047768 
	C717.913818,75.464821 718.176880,84.913040 718.176880,94.220528 
	C720.634827,94.880394 722.587097,95.404526 724.539429,95.928650 
	C724.480835,96.377060 724.422302,96.825462 724.363770,97.273872 
	C714.042847,97.273872 703.721985,97.273872 693.401123,97.273872 
	C693.014648,96.862915 692.628235,96.451965 692.241760,96.041008 
	C699.572754,95.310036 697.921448,90.482590 697.959473,86.477249 
	C698.013245,80.820641 697.973206,75.163147 697.973267,69.007706 
z"/>
<path fill="#012D78" opacity="1.000000" stroke="none" 
	d="
M70.344254,66.306053 
	C65.286308,68.761955 60.557297,71.033165 54.738068,73.827980 
	C57.661831,75.119080 59.917828,75.559090 61.316559,76.896004 
	C62.606457,78.128891 62.976002,80.324692 63.750931,82.096359 
	C62.177094,82.677963 60.298435,84.121391 59.082424,83.691299 
	C53.945751,81.874519 48.867958,79.764206 44.042957,77.237404 
	C40.755184,75.515633 41.507595,71.276146 45.489502,69.407761 
	C57.343674,63.845539 69.292870,58.485458 81.215775,53.070263 
	C86.647041,50.603462 92.211349,48.401894 97.508278,45.677494 
	C100.639671,44.066906 103.182693,44.082794 106.384781,45.572697 
	C123.960571,53.750557 141.665970,61.649738 159.253250,69.803352 
	C160.456360,70.361122 161.736237,72.206406 161.750351,73.466698 
	C161.764435,74.724976 160.514709,76.491791 159.324493,77.178307 
	C155.447006,79.414810 151.481171,81.673706 147.266937,83.074280 
	C145.261383,83.740814 142.617233,82.485847 140.262360,82.101288 
	C141.608337,80.087769 142.768845,77.906975 144.374100,76.127319 
	C145.250793,75.155388 146.880417,74.862617 149.148148,73.809578 
	C142.294128,70.503448 136.420822,67.609955 130.495636,64.826904 
	C122.243233,60.950748 114.020172,56.996071 105.627678,53.445827 
	C103.620934,52.596920 100.667992,52.449345 98.708008,53.285954 
	C89.258476,57.319397 79.999664,61.799644 70.344254,66.306053 
z"/>
<path fill="#012D78" opacity="1.000000" stroke="none" 
	d="
M451.008026,175.139999 
	C451.004669,176.261719 451.005402,176.927856 451.003265,177.593994 
	C450.988556,182.205551 451.248718,186.865387 456.329376,188.866714 
	C461.577118,190.933868 465.145782,187.636002 468.282806,184.107742 
	C469.682648,182.533371 470.781036,180.578857 471.602661,178.623123 
	C474.296814,172.210083 473.516785,170.898529 466.828217,169.804626 
	C466.408142,169.735931 466.038940,169.356079 465.615204,169.102524 
	C468.196106,166.553757 482.517853,166.031738 487.522766,168.208221 
	C487.497803,168.531250 487.483215,169.134644 487.438751,169.136856 
	C481.385529,169.437851 480.337189,173.599884 479.853394,178.515778 
	C479.531647,181.785126 478.733978,185.028137 477.896667,188.216599 
	C477.537628,189.583771 476.537018,190.782455 475.827911,192.057693 
	C475.421265,191.932541 475.014618,191.807373 474.607971,191.682220 
	C474.253937,189.681915 473.899902,187.681610 473.415131,184.942474 
	C471.468536,186.562729 469.920715,187.873566 468.349243,189.155380 
	C459.850830,196.087433 447.546661,192.530991 444.179535,182.174774 
	C439.593445,168.069305 447.811859,148.880508 461.224731,142.376877 
	C468.894806,138.657791 471.961914,139.008499 482.713593,144.942993 
	C483.925751,143.666245 485.187317,142.337463 486.448853,141.008682 
	C486.931641,141.198471 487.414429,141.388260 487.897247,141.578049 
	C486.461914,148.638977 485.026581,155.699921 483.591278,162.760864 
	C482.989136,162.744919 482.386993,162.728973 481.784851,162.713028 
	C481.236450,159.489075 480.494415,156.283661 480.183624,153.036957 
	C479.678650,147.762177 477.023376,144.245209 471.904205,143.224960 
	C466.528748,142.153625 462.544434,145.166031 459.565247,149.164612 
	C453.960297,156.687393 451.885925,165.513168 451.008026,175.139999 
z"/>
<path fill="#012D78" opacity="1.000000" stroke="none" 
	d="
M636.625122,188.230286 
	C641.632874,188.368088 644.704956,186.097153 647.200623,182.348267 
	C655.634888,169.678589 664.200684,157.096161 672.780884,144.524490 
	C673.721497,143.146317 675.080017,142.053329 677.365845,139.648560 
	C677.674377,142.926926 677.963928,144.616196 677.971130,146.306671 
	C678.014893,156.635864 677.994568,166.965317 677.995483,177.294693 
	C677.996216,185.922913 677.996094,185.922913 684.547546,190.165344 
	C677.538818,190.165344 670.530151,190.165344 663.521423,190.165344 
	C663.426270,189.750214 663.331116,189.335083 663.235962,188.919952 
	C665.240417,188.401093 667.244812,187.882248 669.885193,187.198776 
	C669.885193,183.754929 669.941284,180.138443 669.837524,176.526566 
	C669.816956,175.809113 669.368225,174.850815 668.801147,174.445587 
	C666.226624,172.605881 657.165466,174.474777 655.309937,177.121658 
	C654.453857,178.342880 653.574646,179.549759 652.764465,180.801025 
	C649.296936,186.156677 649.455505,186.530899 655.529968,188.268478 
	C656.033081,188.412415 656.394897,189.050598 657.952454,190.539230 
	C654.051514,190.733856 651.396423,190.936157 648.738586,190.981644 
	C645.241211,191.041519 641.739990,191.039368 638.243958,190.939621 
	C636.694275,190.895416 634.509949,191.034454 636.625122,188.230286 
M665.493103,162.108475 
	C663.880066,164.792969 662.267029,167.477463 660.172180,170.963791 
	C663.161377,170.963791 665.016357,171.242538 666.727356,170.866440 
	C667.880737,170.612915 669.649048,169.511917 669.729431,168.657089 
	C670.066895,165.070007 669.871948,161.432831 669.871948,157.814011 
	C669.512024,157.767197 669.152100,157.720383 668.792236,157.673584 
	C667.839478,158.973236 666.886780,160.272903 665.493103,162.108475 
z"/>
<path fill="#012D78" opacity="1.000000" stroke="none" 
	d="
M588.094666,189.297394 
	C584.825684,190.354218 581.730347,192.060898 578.889099,191.710114 
	C576.348755,191.396515 574.088623,188.813293 571.704895,187.231522 
	C571.829529,186.718307 571.954163,186.205093 572.078857,185.691879 
	C570.538452,187.120193 569.220825,189.062271 567.402893,189.850327 
	C564.982605,190.899521 561.772156,192.086578 559.653992,191.267502 
	C557.880615,190.581787 555.926208,186.888657 556.261169,184.899185 
	C557.149719,179.622177 559.211487,174.539291 560.853455,169.394196 
	C561.539856,167.243607 562.345337,165.131042 563.096619,163.001175 
	C562.597229,162.619232 562.097778,162.237274 561.598328,161.855316 
	C560.087524,163.535950 558.372681,165.079163 557.122925,166.935547 
	C555.851318,168.824509 555.037842,171.021927 553.618835,173.907806 
	C551.634888,167.388702 557.245483,159.031830 562.428162,159.073715 
	C566.045532,159.102982 568.556274,161.203110 567.828186,164.646759 
	C566.509705,170.882904 564.244995,176.914490 562.520325,183.072113 
	C562.027649,184.831009 562.035034,186.729980 561.813110,188.564728 
	C563.632874,187.768204 566.297913,187.476028 567.126221,186.087921 
	C570.725891,180.055176 574.464478,173.950577 576.868652,167.400803 
	C579.523132,160.169113 579.250610,159.636765 584.856018,160.832123 
	C582.697266,169.851547 580.537903,178.873627 578.385498,187.866760 
	C583.348511,190.054932 586.298462,187.723587 587.961975,185.188461 
	C590.726624,180.975174 592.724121,176.192459 594.497742,171.445206 
	C594.900085,170.368378 593.137939,168.408966 592.236206,166.939072 
	C591.283203,165.385452 589.625061,164.027054 589.337402,162.395981 
	C589.177551,161.489944 591.255127,159.224792 592.203186,159.291565 
	C594.090149,159.424438 596.918945,160.301880 597.510376,161.670410 
	C598.621094,164.240875 599.168030,167.530350 598.617493,170.251266 
	C597.157593,177.465408 594.360840,184.189178 588.094666,189.297394 
z"/>
<path fill="#012D78" opacity="1.000000" stroke="none" 
	d="
M745.353516,176.342316 
	C744.119629,179.300293 742.910034,181.859741 742.070618,184.535309 
	C741.678833,185.784103 742.003601,187.257690 742.003601,188.629395 
	C742.526978,188.791260 743.050354,188.953140 743.573792,189.115005 
	C745.859802,185.359970 748.145813,181.604935 750.431885,177.849899 
	C750.898682,178.066559 751.365540,178.283218 751.832397,178.499878 
	C752.581848,182.624908 749.679016,185.838516 747.356628,188.697037 
	C745.932922,190.449478 742.899719,191.609970 740.535583,191.705353 
	C737.433105,191.830536 735.105103,187.072205 736.246338,182.985962 
	C737.440369,178.710205 739.307800,174.625809 740.796387,170.427795 
	C741.693604,167.897415 742.429565,165.309891 743.238037,162.748047 
	C742.656799,162.366806 742.075562,161.985580 741.494324,161.604340 
	C739.720398,163.290344 737.391724,164.673233 736.274475,166.718033 
	C732.641968,173.365936 729.300049,180.186234 726.150146,187.079025 
	C724.262939,191.208725 724.495117,191.336334 719.061096,190.158127 
	C723.118652,175.101852 727.172668,160.058548 731.297119,144.753677 
	C728.590820,144.178848 726.606934,143.757446 723.187134,143.031052 
	C728.733276,139.721848 733.171509,141.551636 738.402649,141.036026 
	C736.170959,149.840073 734.170044,157.733673 732.229797,165.387833 
	C734.156311,163.765808 735.876038,161.632980 738.104187,160.634949 
	C740.320374,159.642242 743.226196,159.112946 745.478394,159.708481 
	C746.695129,160.030182 747.962830,163.188324 747.828064,164.961975 
	C747.545776,168.675232 746.350098,172.319016 745.353516,176.342316 
z"/>
<path fill="#012E78" opacity="1.000000" stroke="none" 
	d="
M228.086304,170.099213 
	C230.274307,161.761353 232.375015,153.824615 234.533417,145.669907 
	C231.948334,145.110397 230.127258,144.716248 228.010422,144.258087 
	C230.576538,141.732315 240.335846,141.098709 250.093948,143.416748 
	C248.971985,143.939392 247.848618,144.459076 246.728409,144.985443 
	C245.213440,145.697281 242.642105,146.119064 242.347946,147.173950 
	C238.618423,160.548141 235.215683,174.013474 231.744644,187.459457 
	C231.713898,187.578552 231.887222,187.750305 232.345749,188.615067 
	C238.318130,189.331711 245.258820,190.444077 250.448654,186.380325 
	C255.078400,182.755112 258.013397,176.965576 262.840149,172.584763 
	C262.173218,175.127182 261.624329,177.707657 260.819214,180.205551 
	C257.018188,191.998383 256.993164,191.990860 244.487549,191.990356 
	C236.654419,191.990036 228.820877,192.029739 220.988525,191.951294 
	C219.408859,191.935471 217.833725,191.468582 216.256516,191.209656 
	C216.277023,190.765488 216.297546,190.321320 216.318054,189.877151 
	C217.320175,189.583817 218.495804,189.527725 219.288452,188.947998 
	C220.964722,187.722000 223.193634,186.509689 223.853745,184.779648 
	C225.614655,180.164551 226.665771,175.278610 228.086304,170.099213 
z"/>
<path fill="#012D78" opacity="1.000000" stroke="none" 
	d="
M381.701904,183.474518 
	C383.541412,178.113754 385.307129,173.152237 386.918457,168.141068 
	C387.479584,166.396088 387.659119,164.528412 388.130371,162.115219 
	C381.697906,163.576416 380.239288,168.651047 377.949890,172.544373 
	C375.375549,176.922256 373.639648,181.817734 371.771637,186.579300 
	C369.990326,191.119766 370.104462,191.181458 364.279755,190.399353 
	C366.593262,181.398849 368.893585,172.449524 371.193939,163.500214 
	C370.614624,163.179138 370.035339,162.858063 369.456024,162.536987 
	C367.130463,166.058868 364.804901,169.580734 361.933411,173.929413 
	C361.589752,168.391403 365.237793,161.466064 368.548401,159.841141 
	C372.534485,157.884674 375.485718,159.433685 375.967987,163.757980 
	C376.112305,165.051819 376.174316,166.354828 376.375214,168.971939 
	C378.018280,166.720901 378.841919,165.175690 380.048492,164.035797 
	C381.925720,162.262222 383.832123,160.130524 386.141144,159.288391 
	C390.260071,157.786179 392.507751,159.988495 393.046173,164.399048 
	C393.887573,171.291382 390.271576,176.836517 388.113495,182.850006 
	C387.500275,184.558823 387.348724,186.433289 386.985413,188.231796 
	C387.538910,188.486008 388.092377,188.740234 388.645874,188.994446 
	C390.904175,185.424118 393.162445,181.853790 395.420746,178.283478 
	C395.854187,178.445740 396.287628,178.608017 396.721069,178.770294 
	C397.116608,182.578873 395.080261,185.961746 392.607025,188.574356 
	C390.928467,190.347565 387.697632,191.968185 385.479401,191.621262 
	C381.650421,191.022415 380.944519,187.451889 381.701904,183.474518 
z"/>
<path fill="#012D78" opacity="1.000000" stroke="none" 
	d="
M323.627808,160.624481 
	C322.137238,168.086960 320.397949,175.273575 318.739563,182.478806 
	C318.347595,184.181778 318.227783,185.947388 317.982788,187.684174 
	C318.422302,187.897812 318.861786,188.111435 319.301270,188.325058 
	C321.619446,184.877350 323.937622,181.429642 326.622467,177.436600 
	C327.389679,182.930084 323.558807,190.331131 319.767334,191.555588 
	C316.171295,192.716904 313.162201,192.258438 312.144958,187.177856 
	C310.606873,188.350189 309.512054,189.197495 308.403961,190.027069 
	C302.961792,194.101334 296.680725,192.218201 294.473541,185.854507 
	C291.520355,177.340042 299.121368,162.292770 307.738708,159.688889 
	C308.982269,159.313110 310.668976,158.637756 311.553162,159.144135 
	C315.401093,161.347931 319.481873,159.872635 323.627808,160.624481 
M312.864990,177.174606 
	C313.540924,174.625641 314.437927,172.110367 314.832794,169.518600 
	C315.257385,166.731644 315.615814,163.082993 312.113007,162.533234 
	C310.297943,162.248367 307.415802,164.423431 306.111023,166.263718 
	C304.247803,168.891571 303.069244,172.141098 302.176971,175.289139 
	C300.842560,179.997192 300.001740,184.848114 302.154083,190.009598 
	C308.535889,188.020676 310.574799,182.981018 312.864990,177.174606 
z"/>
<path fill="#012D78" opacity="1.000000" stroke="none" 
	d="
M537.241821,159.042557 
	C544.991943,159.363022 549.500122,164.230560 548.728699,171.839355 
	C548.124390,177.799744 546.232300,183.451218 541.680115,187.836899 
	C537.904419,191.474503 531.219299,193.360092 527.467834,191.693069 
	C523.879028,190.098328 520.507996,183.458160 521.076355,178.436386 
	C521.956848,170.658020 526.786316,160.841812 537.241821,159.042557 
M538.506775,181.966415 
	C539.668152,177.211472 541.147644,172.500534 541.814819,167.677231 
	C542.042114,166.034134 540.445740,162.809814 539.291870,162.614273 
	C537.535278,162.316605 534.770203,163.500900 533.605103,164.979248 
	C529.265869,170.485184 527.604980,177.072617 528.136353,184.001984 
	C528.280945,185.887161 530.056274,187.647293 531.083252,189.464798 
	C532.782288,188.497330 534.685913,187.758743 536.111084,186.484955 
	C537.125183,185.578644 537.494995,183.951538 538.506775,181.966415 
z"/>
<path fill="#012D78" opacity="1.000000" stroke="none" 
	d="
M811.096436,186.458984 
	C812.466614,180.842438 813.795959,175.613953 815.328308,170.445648 
	C816.093262,167.865677 817.229370,165.395737 817.622192,162.571335 
	C811.874329,163.754044 811.842102,169.768951 808.438538,172.978622 
	C806.539978,167.858887 811.645447,159.533600 816.588623,159.017227 
	C820.869629,158.570053 823.391724,160.773209 822.801941,164.655365 
	C822.021912,169.789963 820.124207,174.763397 818.596436,179.772415 
	C817.755798,182.528458 816.688599,185.215393 815.178894,189.467636 
	C818.765808,188.639679 821.155029,188.655350 822.872925,187.589172 
	C828.908813,183.843201 831.301819,177.586075 832.750671,171.073700 
	C833.031372,169.812256 830.968323,168.049927 830.031677,166.491440 
	C829.078003,164.904633 827.749573,163.353729 827.473511,161.643707 
	C827.365601,160.974945 829.815308,159.056625 830.854065,159.225021 
	C832.654724,159.516937 835.515381,160.781845 835.719971,162.007797 
	C836.349182,165.777908 836.702393,169.922012 835.762817,173.559067 
	C833.681702,181.615082 829.894226,188.762863 821.046387,191.442459 
	C816.112061,192.936813 813.497986,191.682053 811.096436,186.458984 
z"/>
<path fill="#012D78" opacity="1.000000" stroke="none" 
	d="
M842.919678,169.210342 
	C846.553284,163.359177 850.648682,158.458466 857.917786,159.167892 
	C860.282043,159.398636 864.066895,161.174683 864.368652,162.777374 
	C864.858398,165.378906 863.843201,169.332657 861.951477,171.056091 
	C859.302673,173.469147 855.389404,175.119278 851.791382,175.702011 
	C847.596375,176.381439 846.883484,178.957275 847.175171,181.907135 
	C847.408630,184.267471 848.979675,188.402298 849.977722,188.408432 
	C852.558777,188.424362 855.466370,187.011322 857.643555,185.371964 
	C859.524780,183.955444 860.580811,181.443146 862.531433,179.827179 
	C862.605103,186.484680 856.721008,192.070206 850.885742,191.968079 
	C844.739807,191.860519 840.873535,187.483536 841.087891,180.196930 
	C841.192505,176.641602 842.189941,173.112534 842.919678,169.210342 
M855.587280,161.959641 
	C851.968933,164.557983 849.731750,167.896973 849.592712,172.683578 
	C854.641174,173.625534 857.488953,170.753525 859.584961,167.349991 
	C861.383301,164.430069 859.636108,161.863495 855.587280,161.959641 
z"/>
<path fill="#012D78" opacity="1.000000" stroke="none" 
	d="
M786.914307,191.395630 
	C779.140076,188.504272 779.980164,182.174438 780.022400,176.229553 
	C780.081482,167.911682 789.235229,157.570007 797.108337,159.116730 
	C799.409058,159.568726 802.429077,160.753723 803.412354,162.541550 
	C805.112976,165.633987 804.070984,169.387695 800.942139,171.294800 
	C797.622681,173.318039 793.881104,175.016113 790.103943,175.812531 
	C786.677551,176.534958 786.054077,178.851669 786.212097,181.103104 
	C786.392151,183.668503 787.208069,186.791229 788.932983,188.403625 
	C789.856812,189.267166 793.582458,187.944580 795.469788,186.722336 
	C797.126404,185.649445 797.889832,183.265366 799.232239,181.610092 
	C799.885071,180.805161 800.959656,180.342285 802.526978,179.246597 
	C800.963928,188.114456 795.053589,192.506210 786.914307,191.395630 
M798.104187,168.270050 
	C797.938904,166.010696 797.773560,163.751358 797.608276,161.492020 
	C795.614258,162.592270 793.153320,163.284805 791.745667,164.896988 
	C790.025208,166.867477 789.188293,169.609375 787.831055,172.290787 
	C792.697754,173.869064 795.154663,171.374573 798.104187,168.270050 
z"/>
<path fill="#012D78" opacity="1.000000" stroke="none" 
	d="
M340.845520,167.035370 
	C340.849304,165.530411 340.786713,164.396484 340.724091,163.262543 
	C340.363403,163.076248 340.002716,162.889969 339.642029,162.703674 
	C337.333771,166.198776 335.025543,169.693893 332.717285,173.189011 
	C332.165833,172.810654 331.614410,172.432312 331.062958,172.053970 
	C332.396698,169.325150 333.456726,166.415497 335.116791,163.902237 
	C339.652191,157.035797 343.313538,157.259689 347.925415,165.491104 
	C349.037415,163.944214 349.856140,162.576645 350.895538,161.404846 
	C353.393921,158.588211 358.001770,157.961884 359.402863,160.694275 
	C360.372742,162.585754 360.417694,166.346985 359.170929,167.690536 
	C356.537354,170.528595 353.508423,169.231430 350.702545,164.443878 
	C347.496918,172.617294 344.530304,179.636734 342.020935,186.815979 
	C340.819427,190.253510 339.186432,191.859116 334.638000,190.355011 
	C336.668365,182.767792 338.723755,175.087097 340.845520,167.035370 
z"/>
<path fill="#012D78" opacity="1.000000" stroke="none" 
	d="
M267.186523,185.152985 
	C266.287964,176.241043 267.480988,168.326080 274.819031,162.845596 
	C277.227661,161.046692 280.342773,159.548462 283.258026,159.287170 
	C285.403442,159.094879 288.850159,160.589844 289.717255,162.329605 
	C290.721741,164.345047 290.528564,168.476959 289.091766,169.866348 
	C286.288696,172.576920 282.453278,174.624832 278.687958,175.835480 
	C273.702148,177.438522 270.950684,183.681396 274.096039,187.924774 
	C276.235535,190.811157 280.106628,190.186310 283.212921,186.401886 
	C284.984650,184.243362 286.682617,182.024292 289.128326,178.927872 
	C288.981262,185.172470 285.024750,190.641357 280.828766,191.830231 
	C274.850769,193.524002 270.917480,191.706573 267.186523,185.152985 
M285.208069,168.449158 
	C285.044067,166.498276 284.880066,164.547379 284.716095,162.596512 
	C283.350342,162.723236 281.312805,162.327438 280.736542,163.068253 
	C278.396729,166.076355 276.505554,169.433395 274.448944,172.661758 
	C275.103424,173.299377 275.757935,173.936996 276.412415,174.574615 
	C279.245361,172.771759 282.078308,170.968903 285.208069,168.449158 
z"/>
<path fill="#012D78" opacity="1.000000" stroke="none" 
	d="
M503.327087,180.321350 
	C502.158386,183.294220 501.523651,186.139435 500.071381,188.476685 
	C499.306610,189.707520 497.113892,190.051147 495.565918,190.795380 
	C495.262817,189.406799 494.445557,187.894867 494.744049,186.650620 
	C496.167755,180.716293 497.977112,174.875427 499.463898,168.954758 
	C499.917786,167.147247 499.781219,165.191498 499.915100,163.303635 
	C499.464813,163.117249 499.014557,162.930878 498.564301,162.744492 
	C496.293671,166.245468 494.023041,169.746445 491.752411,173.247421 
	C491.049347,172.766724 490.346283,172.286011 489.643219,171.805313 
	C492.271423,167.894333 494.501678,163.617905 497.652588,160.186966 
	C500.213959,157.397919 503.633087,158.768616 505.253235,162.461639 
	C505.633575,163.328552 506.159607,164.131531 506.188446,164.183838 
	C508.055664,162.737045 509.803528,160.763916 511.991150,159.883804 
	C513.735291,159.182129 516.789429,159.014832 517.862305,160.054611 
	C519.208801,161.359573 519.687561,164.209915 519.428650,166.252350 
	C519.295288,167.304642 516.697754,168.823532 515.311890,168.726593 
	C513.824402,168.622528 512.452209,166.870026 510.093567,165.156982 
	C508.052948,169.760391 505.787231,174.871552 503.327087,180.321350 
z"/>
<path fill="#012D78" opacity="1.000000" stroke="none" 
	d="
M711.397217,159.116577 
	C716.065186,160.926193 716.898621,164.504395 715.505676,168.169586 
	C714.984375,169.541199 711.957458,169.960571 710.072937,170.814117 
	C709.735535,169.181000 709.183289,167.555328 709.126282,165.912491 
	C709.077576,164.507584 709.596985,163.082977 709.865112,161.667084 
	C708.277039,162.257812 706.169861,162.393768 705.187439,163.515106 
	C699.919678,169.527191 698.186951,177.003799 698.285156,184.674515 
	C698.344727,189.325012 702.955200,190.842026 706.568359,187.783203 
	C708.172119,186.425415 709.239990,184.449936 710.645142,182.836746 
	C711.559875,181.786682 712.644104,180.884247 713.652405,179.915680 
	C714.216187,180.416977 714.779968,180.918259 715.343811,181.419556 
	C712.842163,184.426163 710.835449,188.146515 707.738220,190.294174 
	C700.799194,195.105743 692.548767,190.562195 692.028320,182.077026 
	C691.496460,173.407379 693.930115,165.845261 701.606384,161.152527 
	C704.191345,159.572250 707.827393,159.711212 711.397217,159.116577 
z"/>
<path fill="#012D78" opacity="1.000000" stroke="none" 
	d="
M511.341614,45.987717 
	C505.652710,45.005707 502.726318,41.449585 503.041656,36.419289 
	C503.386597,30.916956 506.381500,28.132843 512.090881,28.006956 
	C521.296692,27.803976 524.600647,30.696457 523.972107,38.408424 
	C523.510193,44.075619 520.432434,45.988873 511.341614,45.987717 
z"/>
<path fill="#012D78" opacity="1.000000" stroke="none" 
	d="
M762.302734,174.332367 
	C763.780396,170.316910 765.077209,166.649078 766.374023,162.981247 
	C765.716431,162.659317 765.058838,162.337372 764.401184,162.015442 
	C761.820007,165.760223 759.238770,169.504990 756.657593,173.249771 
	C755.987000,172.784119 755.316406,172.318466 754.645813,171.852814 
	C757.260681,167.938644 759.589050,163.774796 762.656006,160.254517 
	C763.642578,159.122208 766.789246,159.075790 768.544556,159.688187 
	C769.722229,160.099060 770.606812,162.467621 770.903503,164.091599 
	C772.147095,170.898361 768.242432,176.487717 766.229553,182.533005 
	C765.616821,184.373138 765.370483,186.335251 764.956360,188.241501 
	C765.531799,188.485153 766.107239,188.728790 766.682739,188.972443 
	C769.017517,185.293518 771.352295,181.614609 774.010071,177.426788 
	C775.347107,183.397217 770.703308,190.906387 765.821106,191.861252 
	C761.703186,192.666611 758.711914,189.263351 759.518127,184.182968 
	C760.029785,180.958786 761.230225,177.843903 762.302734,174.332367 
z"/>
<path fill="#012D78" opacity="1.000000" stroke="none" 
	d="
M400.024658,201.815018 
	C402.878265,198.399918 405.793213,195.278091 409.389679,191.426407 
	C406.643463,190.420761 405.021057,190.325760 404.398071,189.487762 
	C403.318054,188.034958 402.155823,186.032654 402.360413,184.430969 
	C402.520630,183.176559 404.622406,181.399384 405.993805,181.271408 
	C407.599854,181.121552 410.095734,182.030121 410.911499,183.306580 
	C415.215179,190.040695 408.192444,201.996338 400.024658,201.815018 
z"/>
<path fill="#012D78" opacity="1.000000" stroke="none" 
	d="
M605.025635,181.726471 
	C611.794189,180.610229 612.936707,181.530090 612.995911,187.642731 
	C613.070129,195.305405 609.510315,200.020416 601.158691,201.775360 
	C602.583374,200.523895 603.995972,199.258286 605.435120,198.023666 
	C609.708252,194.357681 609.605774,191.929642 605.144043,188.826859 
	C602.196350,186.776932 602.989929,184.384506 605.025635,181.726471 
z"/>
<path fill="#012D78" opacity="1.000000" stroke="none" 
	d="
M771.996704,143.044739 
	C773.574646,144.426544 775.668518,145.825363 775.643738,147.185501 
	C775.620850,148.438156 773.309570,150.623856 772.026855,150.609116 
	C770.700073,150.593903 768.404602,148.461243 768.357788,147.187622 
	C768.308472,145.848190 770.420898,144.429153 771.996704,143.044739 
z"/>
<path fill="#012D78" opacity="1.000000" stroke="none" 
	d="
M52.246796,34.207741 
	C53.711342,35.063652 55.109859,35.827080 55.718327,37.000267 
	C55.962479,37.471008 54.652760,39.257294 53.710155,39.672359 
	C52.958473,40.003365 50.782234,39.096222 50.799984,38.852345 
	C50.912197,37.310513 51.459751,35.800358 52.246796,34.207741 
z"/>
<path fill="#012D78" opacity="1.000000" stroke="none" 
	d="
M31.306572,35.306084 
	C32.931419,35.246723 34.291954,35.451626 35.652489,35.656528 
	C35.410713,36.862766 35.510654,38.358765 34.814518,39.179710 
	C34.296700,39.790359 31.946518,39.900028 31.799822,39.585590 
	C31.241890,38.389656 31.247364,36.930882 31.306572,35.306084 
z"/>
<path fill="#012D78" opacity="1.000000" stroke="none" 
	d="
M41.859619,34.806686 
	C43.377232,35.171940 44.901730,35.525589 45.699669,36.484089 
	C46.031796,36.883045 45.078255,38.943108 44.217197,39.552776 
	C43.559200,40.018669 41.215542,39.482971 41.190491,39.234589 
	C41.052151,37.862915 41.395275,36.442696 41.859619,34.806686 
z"/>
<path fill="#000000" opacity="1.000000" stroke="none" 
	d="
M66.982040,184.999710 
	C64.172012,184.995804 61.842144,185.051956 59.516586,184.975998 
	C53.923454,184.793320 49.635929,181.192490 49.071896,176.278900 
	C48.613491,172.285507 52.362526,166.995987 57.303772,166.548615 
	C63.665539,165.972656 70.218170,166.088333 76.542793,166.961792 
	C81.702377,167.674377 84.475060,172.333160 83.945763,177.004761 
	C83.490211,181.025467 79.757439,184.425323 74.941956,184.906815 
	C72.470955,185.153854 69.958099,184.982162 66.982040,184.999710 
M62.065525,177.802124 
	C66.397789,178.125504 70.765488,178.926804 75.050224,178.609161 
	C78.052254,178.386612 78.864037,173.779984 76.329002,173.280457 
	C71.884026,172.404587 67.124290,173.009247 62.516232,173.303864 
	C62.154991,173.326981 61.948570,175.771545 62.065525,177.802124 
z"/>
<path fill="#000000" opacity="1.000000" stroke="none" 
	d="
M562.973816,67.086487 
	C562.970276,75.533432 562.785889,83.498199 563.046753,91.448349 
	C563.162842,94.988243 561.563049,96.354736 558.519409,96.357681 
	C555.512573,96.360588 553.807312,95.079002 553.921753,91.506844 
	C554.176575,83.556152 553.735046,75.577759 554.147583,67.640305 
	C554.300293,64.701935 555.828247,61.734509 557.194397,59.014008 
	C557.676514,58.053829 559.723083,57.127441 560.729126,57.398170 
	C561.693665,57.657707 562.640259,59.414021 562.869080,60.647198 
	C563.226074,62.571171 562.970276,64.608856 562.973816,67.086487 
z"/>
<path fill="#000000" opacity="1.000000" stroke="none" 
	d="
M609.091675,88.367035 
	C609.034607,79.931976 608.917419,71.936905 609.049744,63.945976 
	C609.109253,60.350422 609.053162,55.511833 613.730591,55.444988 
	C618.309937,55.379543 618.691833,60.335094 618.868225,63.818398 
	C619.229919,70.960930 619.008301,78.135033 618.938538,85.295273 
	C618.927673,86.417091 618.777527,87.797226 618.127197,88.601234 
	C616.585388,90.507454 614.704529,92.139366 612.960693,93.882172 
	C611.684875,92.191017 610.408997,90.499870 609.091675,88.367035 
z"/>
<path fill="#000000" opacity="1.000000" stroke="none" 
	d="
M665.038696,66.763527 
	C665.291321,63.381657 665.289856,60.393345 665.926147,57.547649 
	C666.212158,56.268372 667.772644,55.274036 668.754822,54.150391 
	C669.827576,55.388004 671.497681,56.477371 671.849304,57.893974 
	C672.592285,60.887753 673.001770,64.073929 672.817444,67.137230 
	C672.737488,68.465919 671.063660,70.419258 669.742676,70.799393 
	C667.166626,71.540695 664.670166,70.941628 665.038696,66.763527 
z"/>
<path fill="#000000" opacity="1.000000" stroke="none" 
	d="
M665.713623,161.840515 
	C666.886780,160.272903 667.839478,158.973236 668.792236,157.673584 
	C669.152100,157.720383 669.512024,157.767197 669.871948,157.814011 
	C669.871948,161.432831 670.066895,165.070007 669.729431,168.657089 
	C669.649048,169.511917 667.880737,170.612915 666.727356,170.866440 
	C665.016357,171.242538 663.161377,170.963791 660.172180,170.963791 
	C662.267029,167.477463 663.880066,164.792969 665.713623,161.840515 
z"/>
<path fill="#000000" opacity="1.000000" stroke="none" 
	d="
M312.723083,177.543823 
	C310.574799,182.981018 308.535889,188.020676 302.154083,190.009598 
	C300.001740,184.848114 300.842560,179.997192 302.176971,175.289139 
	C303.069244,172.141098 304.247803,168.891571 306.111023,166.263718 
	C307.415802,164.423431 310.297943,162.248367 312.113007,162.533234 
	C315.615814,163.082993 315.257385,166.731644 314.832794,169.518600 
	C314.437927,172.110367 313.540924,174.625641 312.723083,177.543823 
z"/>
<path fill="#000000" opacity="1.000000" stroke="none" 
	d="
M538.329590,182.306274 
	C537.494995,183.951538 537.125183,185.578644 536.111084,186.484955 
	C534.685913,187.758743 532.782288,188.497330 531.083252,189.464798 
	C530.056274,187.647293 528.280945,185.887161 528.136353,184.001984 
	C527.604980,177.072617 529.265869,170.485184 533.605103,164.979248 
	C534.770203,163.500900 537.535278,162.316605 539.291870,162.614273 
	C540.445740,162.809814 542.042114,166.034134 541.814819,167.677231 
	C541.147644,172.500534 539.668152,177.211472 538.329590,182.306274 
z"/>
<path fill="#000000" opacity="1.000000" stroke="none" 
	d="
M855.884644,161.738098 
	C859.636108,161.863495 861.383301,164.430069 859.584961,167.349991 
	C857.488953,170.753525 854.641174,173.625534 849.592712,172.683578 
	C849.731750,167.896973 851.968933,164.557983 855.884644,161.738098 
z"/>
<path fill="#000000" opacity="1.000000" stroke="none" 
	d="
M797.850830,168.557068 
	C795.154663,171.374573 792.697754,173.869064 787.831055,172.290787 
	C789.188293,169.609375 790.025208,166.867477 791.745667,164.896988 
	C793.153320,163.284805 795.614258,162.592270 797.608276,161.492004 
	C797.773560,163.751358 797.938904,166.010696 797.850830,168.557068 
z"/>
<path fill="#000000" opacity="1.000000" stroke="none" 
	d="
M285.059662,168.807602 
	C282.078308,170.968903 279.245361,172.771759 276.412415,174.574615 
	C275.757935,173.936996 275.103424,173.299377 274.448944,172.661758 
	C276.505554,169.433395 278.396729,166.076355 280.736542,163.068253 
	C281.312805,162.327438 283.350342,162.723236 284.716095,162.596497 
	C284.880066,164.547379 285.044067,166.498276 285.059662,168.807602 
z"/>
<path fill="#012D78" opacity="1.000000" stroke="none" 
	d="
M61.867859,177.446411 
	C61.948570,175.771545 62.154991,173.326981 62.516232,173.303864 
	C67.124290,173.009247 71.884026,172.404587 76.329002,173.280457 
	C78.864037,173.779984 78.052254,178.386612 75.050224,178.609161 
	C70.765488,178.926804 66.397789,178.125504 61.867859,177.446411 
z"/>
</svg>